{"glyphs":{"0":{"ha":715,"x_min":0,"x_max":0,"o":"m 49 258 b 263 -33 49 124 103 -33 b 667 468 499 -33 667 256 b 454 774 667 603 618 774 b 49 258 210 774 49 475 z m 158 236 b 460 689 158 388 279 689 b 600 483 556 689 600 563 b 271 21 600 322 460 21 b 158 236 174 21 158 165 z "},"1":{"ha":481,"x_min":0,"x_max":0,"o":"m 110 -24 b 129 -51 110 -37 113 -51 b 251 15 175 -51 242 -37 b 354 511 251 15 310 347 b 421 699 371 574 389 642 b 439 743 429 713 439 726 b 375 779 439 772 397 779 b 297 742 342 779 317 769 b 114 561 247 671 183 611 b 42 490 86 542 42 525 b 64 464 42 475 46 464 b 257 583 110 464 219 553 b 188 249 247 469 219 358 b 110 -24 171 193 110 19 z "},"2":{"ha":692,"x_min":0,"x_max":0,"o":"m 200 92 b 599 606 321 192 599 442 b 369 818 599 733 493 818 b 93 593 251 818 93 725 b 122 557 93 571 99 557 b 154 606 150 557 150 586 b 347 751 174 686 265 751 b 472 619 417 751 472 688 b 39 8 472 351 39 57 b 75 -19 39 -12 57 -19 b 285 13 140 -19 211 13 b 511 -18 363 13 433 -18 b 663 90 565 -18 663 26 b 636 117 663 104 650 117 b 599 82 624 117 613 90 b 522 67 576 69 547 67 b 271 106 439 67 357 106 b 200 92 247 106 222 101 z "},"3":{"ha":650,"x_min":0,"x_max":0,"o":"m 81 -301 b 621 132 299 -301 621 -110 b 300 417 621 315 463 400 b 474 631 378 456 474 535 b 303 742 474 718 372 742 b 86 653 232 742 133 707 b 65 606 74 639 65 625 b 103 567 65 583 81 567 b 136 590 121 567 128 576 b 274 688 168 640 208 688 b 339 617 314 688 339 656 b 140 401 339 521 215 442 b 97 361 118 389 107 386 b 96 353 96 358 96 356 b 132 328 96 333 117 328 l 214 333 b 499 111 343 333 499 258 b 71 -240 499 -103 264 -240 b 3 -231 47 -240 25 -239 b -67 -210 -21 -222 -40 -210 b -97 -235 -83 -210 -97 -215 b 81 -301 -97 -293 39 -301 z "},"4":{"ha":758,"x_min":0,"x_max":0,"o":"m 515 161 b 738 232 515 161 738 156 b 700 261 738 253 718 261 b 538 247 646 261 592 250 b 615 564 551 300 615 525 b 579 599 615 588 603 599 b 525 543 544 599 532 572 b 446 238 501 440 467 338 b 299 235 394 235 375 235 b 186 251 250 235 186 236 b 521 772 186 300 472 719 b 556 824 533 786 556 804 b 513 864 556 847 536 864 b 442 817 488 864 456 835 b 46 235 378 736 65 307 b 42 208 43 226 42 217 b 175 144 42 146 129 144 b 431 151 260 144 346 146 b 376 -104 418 65 396 -19 b 375 -118 375 -108 375 -114 b 410 -154 375 -139 388 -154 b 451 -101 438 -154 446 -128 b 515 161 471 -14 493 74 z "},"5":{"ha":671,"x_min":0,"x_max":0,"o":"m 126 463 b 192 638 135 499 171 611 l 488 638 b 658 721 590 646 650 657 l 658 724 b 636 740 658 739 651 740 l 493 728 l 236 728 b 158 711 200 728 165 722 b 53 400 133 675 53 444 b 97 371 53 372 75 371 l 197 371 b 482 142 338 371 482 306 b 72 -193 482 -78 254 -193 b -50 -157 19 -193 -17 -157 b -92 -187 -68 -157 -92 -167 b 50 -251 -92 -250 6 -251 l 65 -251 b 288 -212 140 -251 217 -237 b 626 157 436 -160 626 -18 b 126 463 626 404 315 456 z "},"6":{"ha":718,"x_min":0,"x_max":0,"o":"m 69 242 b 326 -40 69 100 178 -40 b 690 301 482 -40 690 142 b 476 518 690 419 596 518 b 399 508 450 518 424 514 b 264 428 368 501 264 465 b 276 418 264 421 271 418 b 310 428 289 418 299 424 b 390 444 338 439 361 444 b 582 264 504 444 582 382 b 349 31 582 124 489 31 b 192 279 233 31 192 188 b 428 849 192 469 297 713 b 533 925 458 881 493 904 b 565 954 533 925 565 938 b 536 976 565 972 551 976 b 354 857 488 976 390 892 b 69 242 178 690 69 489 z "},"7":{"ha":639,"x_min":0,"x_max":0,"o":"m 139 -332 b 217 -256 182 -332 204 -292 b 308 -3 246 -171 275 -86 b 594 575 389 197 486 389 b 640 701 615 611 640 660 b 558 750 640 744 590 750 l 533 749 b 208 738 425 740 317 738 l 99 738 b 50 692 71 738 50 721 b 101 656 50 661 76 656 l 485 681 b 504 665 494 681 504 679 b 407 443 504 615 438 501 b 386 403 401 432 394 418 b 94 -299 294 226 94 -161 b 139 -332 94 -322 119 -332 z "},"8":{"ha":707,"x_min":0,"x_max":0,"o":"m 675 696 b 721 747 700 696 721 724 b 460 900 721 864 550 900 b 129 722 350 900 129 867 b 288 453 129 635 231 517 b 63 143 189 378 63 279 b 267 -44 63 21 150 -44 b 551 199 406 -44 551 49 b 426 456 551 288 478 388 b 574 563 476 490 525 526 b 639 613 596 579 621 592 b 661 646 639 613 661 631 b 638 664 661 658 649 664 b 607 654 626 664 617 660 b 536 613 582 642 560 626 l 382 517 b 247 738 338 569 247 681 b 454 857 247 826 385 857 b 639 750 543 857 614 850 l 639 747 b 675 696 643 729 651 696 z m 344 392 b 446 188 390 343 446 257 b 286 7 446 97 383 7 b 161 143 211 7 161 72 b 344 392 161 250 274 328 z "},"9":{"ha":711,"x_min":0,"x_max":0,"o":"m 663 454 b 406 736 663 596 554 736 b 42 394 250 736 42 554 b 256 178 42 276 136 178 b 333 189 282 178 308 183 b 468 268 364 196 468 231 b 456 278 468 275 461 278 b 422 268 443 278 433 272 b 342 251 394 257 371 251 b 150 432 228 251 150 314 b 383 665 150 572 243 665 b 540 417 499 665 540 508 b 199 -229 540 182 376 -153 b 167 -258 186 -235 167 -242 b 196 -281 167 -276 181 -281 b 378 -161 244 -281 342 -196 b 663 454 554 6 663 207 z "},"\u0000":{"ha":1389,"x_min":0,"x_max":0,"o":""},"!":{"ha":436,"x_min":0,"x_max":0,"o":"m 326 1079 b 226 796 225 1079 235 903 b 196 340 215 644 210 492 b 194 321 196 333 194 328 b 215 279 194 308 196 279 b 257 331 247 279 253 306 b 382 917 269 401 363 825 b 394 1001 388 944 394 972 b 326 1079 394 1051 379 1079 z m 196 0 b 247 71 240 0 247 33 b 188 126 247 101 217 126 b 139 56 150 126 139 86 b 196 0 139 22 164 0 z "},"\"":{"ha":426,"x_min":0,"x_max":0,"o":"m 336 628 b 363 665 356 628 361 649 b 385 910 367 722 385 904 b 338 958 385 935 363 958 b 292 910 311 958 292 936 l 313 667 b 336 628 314 651 317 628 z m 183 628 b 210 665 203 628 208 649 b 232 910 214 708 232 904 b 185 958 232 935 210 958 b 139 910 158 958 139 936 b 158 667 139 904 153 703 l 158 664 b 183 628 161 649 165 628 z "},"$":{"ha":878,"x_min":0,"x_max":0,"o":"m 506 75 l 510 179 b 517 336 513 232 517 283 b 614 193 574 288 614 242 b 506 75 614 139 568 100 z m 440 893 l 440 569 b 326 746 376 626 326 685 b 440 893 326 808 379 860 z m 836 910 b 686 990 836 981 738 990 b 539 981 644 990 593 988 b 540 1067 540 1010 540 1038 b 499 1113 540 1092 525 1113 b 440 1038 457 1113 440 1074 l 440 961 b 196 729 313 928 196 860 b 440 397 196 590 325 488 l 440 53 b 222 25 358 31 268 25 b 86 43 175 25 132 43 b 42 10 61 43 42 43 b 196 -32 51 -29 149 -32 l 219 -32 b 440 -10 278 -32 360 -28 l 440 -100 b 469 -131 440 -117 453 -131 b 501 -67 499 -131 501 -94 l 501 7 b 714 222 617 42 714 107 b 522 500 714 331 618 418 b 538 932 528 644 533 789 b 656 944 572 944 618 944 b 724 917 674 944 724 944 b 632 788 724 875 632 833 b 668 753 632 767 647 753 b 794 817 707 753 767 792 b 836 910 819 839 836 876 z "},"%":{"ha":1122,"x_min":0,"x_max":0,"o":"m 303 -57 b 364 32 333 -57 349 1 l 453 211 b 808 938 504 313 782 882 b 847 1033 822 968 847 1008 b 799 1074 847 1060 824 1074 b 739 1024 771 1074 750 1047 l 276 -15 b 274 -29 275 -19 274 -25 b 303 -57 274 -44 288 -57 z m 224 513 b 483 836 376 513 483 699 b 344 1036 483 925 451 1036 b 83 703 186 1036 83 843 b 224 513 83 615 119 513 z m 349 971 b 431 846 406 971 431 893 b 229 558 431 747 344 558 b 164 689 171 558 164 646 b 349 971 164 781 238 971 z m 779 -1 b 1039 322 932 -1 1039 185 b 900 522 1039 411 1007 522 b 639 189 742 522 639 329 b 779 -1 639 101 675 -1 z m 904 457 b 986 332 961 457 986 379 b 785 44 986 233 900 44 b 719 175 726 44 719 132 b 904 457 719 267 793 457 z "},"&":{"ha":685,"x_min":0,"x_max":0,"o":"m 625 163 b 654 214 640 178 654 197 b 622 247 654 229 639 247 b 554 190 596 247 554 190 b 404 490 504 290 453 390 b 618 767 501 550 618 636 b 439 924 618 867 528 924 b 228 694 313 924 228 815 b 275 526 228 635 250 578 b 63 206 178 454 63 336 b 283 0 63 81 165 0 b 514 88 363 0 454 35 l 557 3 b 596 -15 565 -14 581 -15 b 639 13 615 -15 639 -8 b 583 126 639 25 583 126 b 625 163 597 138 613 150 z m 453 869 b 515 806 494 869 515 847 b 344 565 515 697 429 622 b 314 703 326 610 314 656 b 453 869 314 783 368 869 z m 485 143 b 281 56 424 99 357 56 b 157 174 201 56 157 93 b 332 456 157 283 246 388 z "},"’":{"ha":329,"x_min":0,"x_max":0,"o":"m 139 640 b 151 628 139 632 143 628 b 285 822 203 628 279 776 b 288 858 286 833 288 846 b 240 903 288 888 268 903 b 183 843 208 903 183 874 b 190 785 183 822 190 804 b 139 640 190 707 139 653 z "},"(":{"ha":508,"x_min":0,"x_max":0,"o":"m 157 456 b 390 1000 157 661 250 853 b 454 1060 411 1021 433 1040 b 467 1083 461 1067 467 1072 b 442 1117 467 1100 458 1117 b 422 1108 435 1117 428 1113 b 42 474 229 968 42 731 b 311 -60 42 317 99 97 b 331 -68 317 -64 324 -68 b 356 -35 347 -68 356 -51 b 343 -11 356 -24 350 -18 b 288 46 324 7 306 25 b 157 456 196 157 157 313 z "},")":{"ha":508,"x_min":0,"x_max":0,"o":"m 351 593 b 118 49 351 388 258 196 b 54 -11 97 28 75 8 b 42 -35 47 -18 42 -24 b 67 -68 42 -51 50 -68 b 86 -60 74 -68 81 -64 b 467 575 279 81 467 318 b 197 1108 467 732 410 951 b 178 1117 192 1113 185 1117 b 153 1083 161 1117 153 1100 b 165 1060 153 1072 158 1067 b 221 1003 185 1042 203 1024 b 351 593 313 892 351 736 z "},"*":{"ha":683,"x_min":0,"x_max":0,"o":"m 578 567 b 568 588 578 575 574 582 l 461 694 l 613 694 b 642 724 629 694 642 707 b 613 753 642 740 629 753 l 461 753 l 568 860 b 578 881 574 865 578 872 b 547 911 578 896 563 911 b 526 901 539 911 532 907 l 419 794 l 419 946 b 390 975 419 963 407 975 b 361 946 374 975 361 963 l 361 794 l 254 901 b 233 911 249 907 242 911 b 203 881 218 911 203 896 b 213 860 203 872 207 865 l 319 753 l 168 753 b 139 724 151 753 139 740 b 168 694 139 707 151 694 l 319 694 l 213 588 b 203 567 207 582 203 575 b 233 536 203 551 218 536 b 254 546 242 536 249 540 l 361 653 l 361 501 b 390 472 361 485 374 472 b 419 501 407 472 419 485 l 419 653 l 526 546 b 547 536 532 540 539 536 b 578 567 563 536 578 551 z "},"+":{"ha":596,"x_min":0,"x_max":0,"o":"m 324 194 l 513 194 l 513 242 l 324 242 l 324 436 l 272 436 l 272 242 l 83 242 l 83 194 l 272 194 l 272 -3 l 324 -3 z "},",":{"ha":392,"x_min":0,"x_max":0,"o":"m 139 -143 b 151 -156 139 -151 143 -156 b 285 39 201 -156 279 -10 b 288 75 286 47 288 67 b 240 119 288 103 271 119 b 183 60 208 119 183 90 b 190 1 183 42 190 21 b 139 -143 190 -85 139 -126 z "},"-":{"ha":668,"x_min":0,"x_max":0,"o":"m 139 286 b 156 257 139 269 139 263 b 236 251 172 251 218 251 b 565 279 328 251 478 257 b 585 294 575 282 585 282 b 549 318 585 317 565 318 b 364 314 486 317 425 314 b 243 318 324 314 283 315 b 185 322 224 319 204 322 b 139 286 164 322 139 311 z "},".":{"ha":351,"x_min":0,"x_max":0,"o":"m 196 0 b 247 71 240 0 247 33 b 188 126 247 101 217 126 b 139 56 150 126 139 86 b 196 0 139 22 164 0 z "},"/":{"ha":614,"x_min":0,"x_max":0,"o":"m 71 -57 b 132 32 101 -57 117 1 l 221 211 b 575 938 272 313 547 882 b 614 1033 590 968 614 1004 b 567 1074 614 1060 592 1074 b 507 1024 539 1074 518 1047 l 44 -15 b 42 -29 43 -19 42 -25 b 71 -57 42 -44 56 -57 z "},":":{"ha":407,"x_min":0,"x_max":0,"o":"m 196 0 b 247 71 240 0 247 33 b 188 126 247 101 217 126 b 139 56 150 126 139 86 b 196 0 139 22 164 0 z m 251 361 b 303 432 296 361 303 394 b 243 488 303 463 272 488 b 194 417 206 488 194 447 b 251 361 194 383 219 361 z "},";":{"ha":440,"x_min":0,"x_max":0,"o":"m 285 361 b 336 432 329 361 336 394 b 276 488 336 463 306 488 b 228 417 239 488 228 447 b 285 361 228 383 253 361 z m 139 -143 b 151 -156 139 -151 143 -156 b 285 39 201 -156 279 -10 b 288 75 286 47 288 67 b 240 119 288 103 271 119 b 183 60 208 119 183 90 b 190 1 183 42 190 21 b 139 -143 190 -85 139 -126 z "},"<":{"ha":651,"x_min":0,"x_max":0,"o":"m 83 211 l 568 13 l 568 65 l 164 228 l 568 392 l 568 444 l 83 246 z "},"=":{"ha":660,"x_min":0,"x_max":0,"o":"m 83 267 l 576 267 l 576 313 l 83 313 z m 83 121 l 576 121 l 576 168 l 83 168 z "},">":{"ha":651,"x_min":0,"x_max":0,"o":"m 83 14 l 568 213 l 568 247 l 83 447 l 83 393 l 489 229 l 83 65 z "},"?":{"ha":697,"x_min":0,"x_max":0,"o":"m 275 71 b 215 126 275 101 244 126 b 167 56 178 126 167 86 b 224 0 167 22 192 0 b 275 71 268 0 275 33 z m 238 231 b 265 278 268 231 263 258 b 656 879 286 472 656 606 b 431 1072 656 1015 554 1072 b 208 871 322 1072 208 986 b 282 733 208 833 233 733 b 311 758 296 733 311 743 b 272 872 311 772 272 811 b 407 1000 272 942 339 1000 b 524 876 472 1000 524 939 b 210 286 524 610 210 513 b 238 231 210 269 213 231 z "},"A":{"ha":996,"x_min":0,"x_max":0,"o":"m 546 424 b 385 403 492 417 439 411 b 468 606 415 469 442 538 b 515 718 475 622 507 718 b 521 710 518 718 521 711 b 529 606 531 678 528 639 b 546 424 533 544 539 483 z m 799 -22 b 1063 199 901 -22 1017 115 b 1074 233 1068 210 1074 221 b 1050 253 1074 244 1060 253 b 1018 229 1035 253 1022 242 b 806 63 1018 229 897 63 b 676 388 722 63 682 324 b 796 407 713 393 763 394 b 831 443 813 413 831 422 b 804 463 831 458 817 463 b 671 446 760 463 715 451 b 661 688 663 526 661 607 b 674 1004 661 913 674 990 b 642 1047 674 1024 663 1047 b 517 975 608 1047 517 1017 b 485 822 517 919 506 874 b -49 -81 410 643 165 -81 l -122 -68 b -153 -92 -136 -68 -153 -75 b -54 -133 -153 -128 -79 -133 b 357 339 169 -133 278 172 b 556 369 424 346 489 360 b 799 -22 575 239 626 -22 z "},"B":{"ha":735,"x_min":0,"x_max":0,"o":"m 342 515 b 665 774 436 539 665 664 b 281 903 665 894 365 903 b 317 1054 290 949 299 1011 b 319 1064 318 1057 319 1060 b 296 1075 319 1075 303 1075 b 244 1064 278 1075 261 1071 b 179 994 211 1050 190 1029 b 154 899 169 963 161 931 b 8 882 106 896 54 889 b -46 847 8 882 -46 875 b -25 829 -46 833 -37 829 b 18 835 -11 829 4 833 b 142 846 58 840 100 843 b 46 256 99 651 68 454 b 29 85 39 199 33 142 b 21 -35 26 43 21 4 b 67 -57 21 -56 53 -57 b 150 -3 117 -57 129 -51 b 664 294 303 -3 664 108 b 342 515 664 424 442 492 z m 203 483 b 581 276 306 467 581 411 b 163 76 581 156 257 85 b 161 131 161 94 161 113 b 203 483 161 249 185 367 z m 583 757 b 215 547 583 646 303 568 b 268 849 232 647 247 749 b 583 757 326 849 583 839 z "},"C":{"ha":840,"x_min":0,"x_max":0,"o":"m 257 404 b 571 953 257 565 369 953 b 676 833 639 953 676 897 b 658 714 676 794 669 751 b 628 622 651 690 628 643 b 663 597 628 601 646 597 b 696 607 674 597 686 600 b 750 835 736 636 750 785 b 560 1031 750 946 672 1031 b 101 404 263 1031 101 658 b 483 -46 101 175 232 -46 b 914 213 656 -46 829 64 b 932 257 921 224 932 244 b 910 281 932 269 922 281 b 872 249 893 281 881 261 b 829 183 858 226 846 204 b 521 33 754 89 642 33 b 257 404 301 33 257 224 z "},"D":{"ha":850,"x_min":0,"x_max":0,"o":"m 188 -3 b 808 513 367 -3 808 201 b 325 947 808 813 606 947 b 351 1043 332 979 338 1014 b 354 1054 353 1047 354 1050 b 332 1075 354 1067 343 1075 b 199 943 247 1075 214 1011 b 47 900 199 943 47 940 b 69 882 47 886 57 882 b 189 897 104 882 150 893 b 90 329 147 710 115 519 b 57 -40 74 207 57 83 b 104 -62 57 -61 90 -62 b 188 -3 183 -62 188 -3 z m 193 82 b 224 376 193 181 210 279 b 315 900 250 551 281 726 b 729 521 538 897 729 756 b 193 82 729 249 350 82 z "},"E":{"ha":715,"x_min":0,"x_max":0,"o":"m 554 1036 b 97 475 306 1036 143 681 b -12 408 60 467 -12 460 b 74 361 -12 363 38 361 l 86 361 b 85 324 86 351 85 342 b 363 -65 85 147 151 -65 b 763 168 521 -65 675 42 b 792 229 774 183 792 211 b 768 254 792 243 782 254 b 743 239 756 254 750 247 b 696 169 726 217 714 192 b 432 21 633 89 538 21 b 225 346 265 21 225 214 b 229 394 225 363 226 378 b 244 399 233 396 239 397 b 593 474 321 418 553 474 l 596 474 b 642 525 619 479 642 499 b 585 532 642 532 593 532 b 244 506 514 532 304 524 b 550 965 276 635 386 965 b 679 840 661 965 639 840 b 707 888 707 840 707 867 b 554 1036 707 982 647 1036 z "},"F":{"ha":800,"x_min":0,"x_max":0,"o":"m 685 876 b 892 926 743 886 842 899 b 922 981 915 939 922 954 b 904 1014 922 993 922 1014 b 800 983 882 1014 826 990 b 299 915 636 943 465 939 b 46 767 214 903 46 879 b 136 583 46 704 85 621 b 160 575 146 576 151 575 b 182 592 176 578 182 585 b 118 746 182 610 118 671 b 281 831 118 811 281 831 b 549 861 369 849 460 849 b 550 836 549 861 550 844 b 506 458 550 710 529 583 b 392 443 468 451 429 446 b 340 439 376 442 356 443 b 315 400 324 433 315 417 b 339 376 315 385 324 376 b 494 399 390 376 443 390 b 246 -31 478 276 403 -31 b 118 49 168 -31 154 49 b 96 33 108 49 100 42 b 121 -22 96 11 108 -6 b 250 -85 156 -65 194 -85 b 624 424 494 -85 590 229 b 763 483 647 429 763 457 b 739 503 763 497 751 503 b 636 483 704 503 669 490 b 672 722 650 563 663 642 b 685 876 678 774 685 825 z "},"G":{"ha":799,"x_min":0,"x_max":0,"o":"m 108 194 b 456 799 108 397 276 701 b 574 833 493 819 532 829 b 617 835 588 835 603 835 b 718 803 682 835 699 803 b 740 846 738 803 740 833 b 563 946 740 919 619 946 b -11 226 251 946 -11 506 b 132 6 -11 135 17 6 b 556 404 306 6 482 267 b 272 -294 547 240 499 -294 b 113 -217 181 -294 143 -217 b 92 -242 100 -217 92 -231 b 126 -296 92 -262 113 -283 b 274 -349 161 -329 225 -349 b 685 450 572 -349 658 229 b 704 708 694 536 704 622 b 668 756 704 732 697 756 b 589 667 603 756 603 718 b 215 119 543 500 361 214 b 158 96 199 108 179 96 b 108 194 113 96 108 163 z "},"H":{"ha":986,"x_min":0,"x_max":0,"o":"m 271 294 b 124 -7 264 238 164 33 b 76 -31 111 -19 94 -31 b 47 -3 61 -31 47 -18 b 271 294 47 103 182 246 z m 1043 433 b 1079 469 1064 433 1079 449 b 949 519 1079 518 1004 519 b 813 517 903 519 858 519 b 1040 979 864 669 949 847 b 1104 1078 1060 1007 1104 1042 b 1086 1093 1104 1088 1096 1093 b 978 988 1050 1093 978 988 b 724 506 886 840 789 675 b 410 429 617 494 513 463 b 467 806 442 551 467 679 b 317 1033 467 903 438 1033 b 179 978 290 1033 179 1010 b 208 953 179 965 197 953 b 254 963 225 953 238 963 b 342 786 328 963 342 840 b 282 383 342 744 293 392 b -29 0 183 311 -29 186 b 90 -128 -29 -75 11 -128 b 393 344 278 -128 393 344 b 701 442 492 389 596 421 b 650 161 671 353 650 256 b 726 -11 650 97 665 -11 b 757 15 739 -11 757 1 b 725 125 757 26 725 71 b 794 456 725 225 751 365 b 899 463 829 458 864 463 b 1043 433 950 463 996 433 z "},"I":{"ha":633,"x_min":0,"x_max":0,"o":"m 585 817 b 446 1047 585 915 575 1047 b 122 772 319 1047 171 879 b 71 568 93 708 71 638 b 126 442 71 532 75 442 b 154 472 144 442 154 454 b 128 575 154 503 128 519 b 172 761 128 633 146 710 b 394 956 206 825 317 956 b 454 843 446 956 454 881 b 126 -1 454 672 350 -1 b 24 40 63 -1 51 40 b 0 21 14 40 0 32 b 126 -54 0 -31 86 -54 b 585 817 467 -54 585 560 z "},"J":{"ha":649,"x_min":0,"x_max":0,"o":"m 504 375 b 565 768 542 504 565 633 b 436 1047 565 858 564 1047 b 104 772 306 1047 154 883 b 53 568 75 708 53 638 b 113 442 53 529 57 442 b 140 472 132 442 140 454 b 115 569 140 501 115 521 b 164 763 115 629 136 710 b 383 956 199 829 301 956 b 449 803 449 956 449 847 b 371 335 449 643 410 488 b 0 -264 219 218 1 -65 l 0 -283 b 90 -442 0 -347 4 -442 b 190 -393 128 -442 164 -418 b 476 283 342 -254 433 85 b 563 367 508 299 563 325 b 542 382 563 379 551 382 b 506 375 529 382 514 379 z m 349 240 b 90 -342 325 153 172 -342 b 65 -278 67 -342 65 -293 b 349 240 65 -125 235 142 z "},"K":{"ha":646,"x_min":0,"x_max":0,"o":"m 204 992 b 174 986 194 992 183 992 b 113 839 144 971 113 839 b 0 -57 42 546 0 246 b 36 -107 0 -81 7 -107 b 68 -100 47 -107 58 -104 b 111 -33 106 -83 111 -61 l 111 -18 b 133 224 111 68 122 183 b 551 49 196 176 478 49 b 624 119 593 49 624 78 b 551 143 624 143 567 140 b 513 153 538 144 525 149 b 204 306 406 186 294 238 b 338 479 247 364 338 479 b 635 904 367 514 635 849 b 601 928 635 921 615 928 b 561 907 585 928 571 919 l 154 383 b 228 774 167 515 193 646 b 274 943 239 815 274 906 b 204 992 274 988 240 992 z "},"L":{"ha":794,"x_min":0,"x_max":0,"o":"m 94 -47 b 114 -42 101 -47 108 -44 b 290 10 169 -15 228 10 b 607 -31 397 10 500 -31 b 858 168 718 -31 810 78 b 869 203 864 179 869 190 b 846 222 869 214 856 222 b 597 32 804 222 744 32 b 278 101 486 32 389 101 b 510 989 332 233 372 989 b 618 807 608 989 565 807 b 646 839 640 807 646 819 b 500 1061 646 924 606 1061 b 382 1001 456 1061 413 1032 b 126 90 185 800 249 167 b 35 25 94 71 35 81 b 94 -47 35 -1 67 -47 z "},"M":{"ha":1157,"x_min":0,"x_max":0,"o":"m 872 418 b 1017 25 872 319 874 25 b 1250 246 1106 25 1215 172 b 1261 281 1256 257 1261 268 b 1239 300 1261 292 1249 300 b 1207 276 1224 300 1214 288 b 1040 106 1169 224 1117 106 b 976 276 985 106 976 236 b 1010 651 976 403 990 528 b 1024 776 1017 693 1024 735 b 992 835 1024 800 1024 835 b 958 828 982 835 968 832 b 913 726 925 814 919 758 b 853 582 901 676 874 629 b 707 283 807 481 758 382 b 597 86 672 217 638 150 b 543 28 588 72 561 28 b 519 174 521 28 519 118 b 524 815 524 763 524 792 b 493 942 524 867 515 931 b 454 950 482 947 467 950 b 350 885 426 950 350 918 b 351 876 350 882 350 879 b 367 763 364 839 367 801 b -11 -79 367 588 211 -79 l -71 -72 b -97 -100 -86 -72 -97 -85 b -33 -136 -97 -133 -58 -136 b 358 406 194 -136 297 206 b 365 419 360 408 363 419 b 368 407 368 419 368 408 b 418 -51 368 275 369 69 b 493 -112 431 -83 456 -112 b 871 422 636 -112 847 414 b 872 418 872 421 872 419 z "},"N":{"ha":1044,"x_min":0,"x_max":0,"o":"m 19 -136 b 379 551 321 -136 379 551 b 764 -28 379 551 542 -28 b 961 846 926 -28 961 713 b 935 893 961 864 960 893 b 894 849 904 893 894 878 b 885 590 894 765 890 681 b 815 144 885 590 860 279 b 772 82 810 128 794 82 b 494 675 667 82 521 576 b 467 799 483 715 474 757 l 463 832 b 418 889 458 857 450 889 b 317 814 385 889 317 853 b 328 747 317 792 328 771 b 324 640 328 710 328 679 b 17 -76 303 425 246 -76 l -46 -72 b -78 -100 -62 -72 -78 -82 b 19 -136 -78 -133 -4 -136 z "},"O":{"ha":851,"x_min":0,"x_max":0,"o":"m 303 -56 b 782 601 610 -56 782 339 b 586 1006 782 714 736 1006 l 524 1001 b 435 1015 493 1001 465 1015 b 25 336 168 1015 25 600 b 303 -56 25 157 86 -56 z m 518 924 b 708 575 668 924 708 689 b 346 36 708 383 576 36 b 153 304 190 36 153 175 b 518 924 153 540 315 924 z "},"P":{"ha":628,"x_min":0,"x_max":0,"o":"m 628 631 b 156 999 628 851 351 999 b 93 961 118 999 108 996 b 88 939 90 954 88 946 b 190 901 88 903 167 904 b 538 592 344 886 538 763 b 142 263 538 401 297 300 b 217 671 154 400 181 538 b 256 824 228 711 256 786 b 197 872 256 860 231 872 b 160 864 185 872 171 871 b 94 719 125 844 94 721 b 1 -43 38 467 1 235 b 38 -93 1 -67 8 -93 b 69 -86 47 -93 60 -90 b 111 22 124 -60 111 -28 b 136 214 111 67 122 172 b 628 631 333 247 628 400 z "},"Q":{"ha":851,"x_min":0,"x_max":0,"o":"m 246 597 b 518 924 246 708 358 924 b 708 575 668 924 708 689 b 661 319 708 488 693 400 b 574 181 644 278 611 206 b 246 597 463 310 246 403 z m 511 121 b 329 43 474 74 389 43 b 147 304 197 43 147 194 b 176 479 147 364 157 424 b 410 203 199 354 313 271 b 511 121 443 179 486 153 z m 647 -125 b 681 -43 676 -125 681 -64 b 621 125 681 18 658 78 b 714 271 621 125 690 218 b 783 601 760 374 783 489 b 701 926 783 711 764 833 b 586 1007 676 964 633 1007 b 524 1003 565 1007 546 1003 b 435 1017 490 1003 464 1014 b 221 896 351 1017 274 956 b 19 375 99 760 19 558 b 294 -53 19 201 76 -53 b 563 75 394 -53 494 6 b 618 -57 599 32 618 1 b 647 -125 618 -99 619 -125 z "},"R":{"ha":626,"x_min":0,"x_max":0,"o":"m 626 669 b 200 996 626 885 379 975 b 154 999 185 997 169 999 b 92 961 117 999 107 996 b 86 939 89 954 86 946 b 189 901 86 903 165 904 b 536 631 331 888 536 797 b 140 301 536 440 296 339 b 206 654 151 421 174 539 b 254 824 217 696 254 788 b 196 872 254 860 229 872 b 160 865 183 872 171 871 b 93 719 124 846 93 719 b 0 -43 25 447 0 236 b 36 -93 0 -67 7 -93 b 68 -86 47 -93 58 -90 b 111 -19 106 -68 111 -47 l 110 22 b 126 172 110 63 114 135 b 544 -3 189 125 471 -3 b 617 68 586 -3 617 26 b 543 92 617 92 558 89 b 506 101 531 93 518 97 b 176 256 390 136 274 183 b 626 669 360 288 626 463 z "},"S":{"ha":774,"x_min":0,"x_max":0,"o":"m 590 788 b 626 753 590 767 606 753 b 753 817 664 753 726 792 b 794 910 778 840 794 875 b 644 990 794 979 696 990 b 154 729 481 990 154 949 b 572 193 154 479 572 349 b 181 25 572 56 281 25 b 44 43 135 25 90 43 b 0 13 19 43 0 43 b 104 -28 0 -24 81 -25 b 178 -32 129 -31 153 -32 b 672 222 336 -32 672 8 b 285 746 672 440 285 574 b 519 938 285 850 432 922 b 614 944 550 943 582 944 b 682 917 632 944 682 944 b 590 788 682 874 590 833 z "},"T":{"ha":788,"x_min":0,"x_max":0,"o":"m 632 876 b 835 926 685 893 794 903 b 861 971 853 938 861 949 b 840 1014 861 985 861 1014 b 739 983 819 1014 764 990 b 243 915 578 942 407 939 b 0 767 158 903 0 881 b 104 583 0 700 50 619 b 132 575 113 578 122 575 b 150 590 142 575 150 578 b 74 760 150 611 74 671 b 231 831 74 807 196 825 b 496 861 318 844 408 849 b 501 749 501 824 501 786 b 260 -31 501 596 471 -31 b 126 49 182 -31 161 49 b 106 33 117 49 110 42 b 135 -22 107 11 121 -7 b 268 -85 171 -64 211 -85 b 635 799 588 -85 635 571 b 632 876 635 825 635 850 z "},"U":{"ha":826,"x_min":0,"x_max":0,"o":"m 807 844 b 772 879 807 865 793 879 b 697 792 717 879 707 835 b 656 697 692 764 668 724 b 232 121 599 578 374 121 b 169 265 171 121 169 218 b 253 836 169 442 201 665 b 258 863 256 844 258 853 b 206 900 258 896 232 900 b 169 894 193 900 181 900 b 92 753 128 876 92 753 b 36 300 71 692 36 450 b 183 13 36 199 42 13 b 608 453 364 13 536 313 b 589 114 594 340 589 228 b 631 -75 589 71 590 -75 b 667 -22 661 -75 667 -46 b 665 51 667 -3 665 18 b 751 644 676 251 707 450 b 807 844 761 685 807 818 z "},"V":{"ha":835,"x_min":0,"x_max":0,"o":"m 0 833 b 31 790 0 821 22 800 b 315 53 185 610 278 282 b 361 -28 321 22 317 -28 b 431 58 428 -28 417 10 b 526 254 446 115 497 200 b 756 668 600 393 676 532 b 890 886 799 742 838 819 b 904 911 896 893 904 901 b 861 950 904 932 881 950 b 806 894 840 950 806 894 b 632 601 742 799 688 697 b 485 340 582 515 532 428 b 417 199 460 294 432 249 b 201 768 374 397 307 593 b 128 871 179 804 157 840 b 69 913 114 885 90 913 b 0 833 40 913 0 861 z "},"W":{"ha":1186,"x_min":0,"x_max":0,"o":"m 100 451 b 29 43 100 317 90 165 b 18 10 29 43 18 22 b 72 -31 18 -24 44 -31 b 233 224 128 -31 203 164 b 519 696 294 346 428 606 b 514 606 514 667 514 636 b 765 -26 514 454 543 -26 b 1143 792 1040 -26 1143 599 b 1085 993 1143 829 1138 993 b 1053 967 1068 993 1053 985 b 1058 935 1053 956 1056 946 b 1074 786 1068 886 1074 836 b 803 85 1074 657 963 85 b 649 596 671 85 649 510 b 663 758 649 650 653 704 b 674 832 667 783 674 807 b 601 886 674 871 635 886 b 474 760 556 886 501 799 b 363 593 436 704 399 649 b 218 350 311 515 256 436 b 225 467 222 389 225 428 b 172 835 225 592 204 714 b 151 906 165 858 160 879 b 72 971 139 943 115 971 b 19 935 49 971 19 965 b 31 893 19 919 31 893 b 100 451 76 753 100 600 z "},"X":{"ha":875,"x_min":0,"x_max":0,"o":"m 546 519 b 778 807 615 621 689 722 b 861 875 804 832 836 850 b 879 914 874 888 879 896 b 858 938 879 929 875 938 b 519 610 758 938 576 690 b 275 950 492 742 446 950 b 42 833 178 950 106 903 b -4 758 22 813 -4 789 b 22 728 -4 743 6 728 b 235 831 57 728 96 831 b 379 613 331 831 363 685 b 410 461 390 563 400 511 b 68 31 365 396 128 31 b -19 -18 33 31 -19 28 b 39 -72 -19 -49 10 -72 b 435 367 149 -72 435 367 b 657 -39 456 268 554 -8 b 683 -42 665 -42 675 -42 b 801 24 722 -42 801 -29 b 778 49 801 38 792 49 l 746 40 b 546 519 649 40 560 436 z "},"Y":{"ha":817,"x_min":0,"x_max":0,"o":"m 600 510 b 399 -231 589 307 522 -69 b 269 -299 368 -271 321 -299 b 110 -224 182 -299 138 -224 b 88 -244 97 -224 88 -232 b 125 -303 88 -262 111 -290 b 267 -358 163 -336 215 -358 b 757 676 608 -358 726 429 b 778 871 765 739 772 804 l 778 878 b 743 918 778 900 771 918 l 719 918 b 664 829 672 918 664 829 b 625 729 661 804 636 756 b 221 126 575 610 364 126 b 150 310 150 126 150 261 b 217 874 150 494 169 694 b 221 897 218 882 221 889 b 174 938 221 926 200 938 b 132 931 160 938 144 938 b 60 790 93 913 60 790 b 17 338 17 639 17 485 b 178 18 17 229 28 18 b 600 510 368 18 536 360 z "},"Z":{"ha":761,"x_min":0,"x_max":0,"o":"m 626 -21 b 663 -14 640 -21 650 -19 b 750 133 696 1 750 97 b 714 160 750 151 729 160 b 678 143 699 160 689 154 b 429 74 608 69 524 76 l 183 65 b 413 346 261 158 338 251 b 633 651 490 444 563 547 b 715 775 661 693 686 735 b 761 861 732 797 761 832 b 732 886 761 879 747 886 l 175 886 b 164 889 171 888 168 889 b 149 885 158 889 153 888 b 61 728 114 868 61 765 b 99 701 61 708 83 701 b 133 718 114 701 122 707 b 388 792 200 788 296 792 l 536 792 b 621 778 581 792 621 789 b 206 203 621 739 260 272 b 110 86 181 171 138 110 l 107 85 b 67 24 86 68 67 51 b 124 -33 67 -4 96 -33 l 132 -32 b 406 -12 221 -15 314 -12 l 515 -12 b 579 -17 538 -12 558 -14 b 626 -21 594 -19 611 -21 z "},"^":{"ha":732,"x_min":0,"x_max":0,"o":"m 579 824 l 649 824 l 404 1085 l 329 1085 l 83 824 l 154 824 l 367 1033 z "},"_":{"ha":633,"x_min":0,"x_max":0,"o":"m -25 -142 l 658 -142 l 658 -93 l -25 -93 z "},"‘":{"ha":274,"x_min":0,"x_max":0,"o":"m 190 890 b 178 903 190 899 186 903 b 44 708 128 903 50 757 b 42 672 43 700 42 681 b 89 628 42 644 58 628 b 146 688 121 628 146 657 b 139 746 146 706 139 726 b 190 890 139 832 190 874 z "},"a":{"ha":585,"x_min":0,"x_max":0,"o":"m 661 225 b 639 251 661 240 656 251 b 600 217 619 251 600 217 b 393 29 563 167 458 29 b 349 165 350 29 349 136 b 369 319 349 214 354 272 b 394 400 376 340 394 381 b 363 422 394 418 376 422 b 315 381 336 422 325 401 b 110 78 289 324 172 78 b 92 111 93 78 92 100 b 210 383 92 215 138 310 b 346 486 250 425 296 457 b 360 503 353 490 360 494 b 314 546 360 522 333 546 b 0 146 151 546 0 292 b 83 1 0 93 15 1 b 278 185 157 1 242 128 b 381 -31 278 119 289 -31 b 631 168 478 -31 579 96 b 661 225 640 182 661 208 z "},"b":{"ha":571,"x_min":0,"x_max":0,"o":"m 429 444 b 543 493 456 447 543 458 b 514 522 543 508 529 522 b 258 501 454 517 397 506 b 206 463 235 501 206 490 b 238 424 206 447 221 424 b 378 301 319 424 378 392 b 271 58 378 226 325 110 b 211 26 256 43 235 26 b 140 238 142 26 140 196 b 174 504 140 326 160 417 b 324 1022 201 681 258 857 b 364 1160 338 1058 364 1121 b 335 1193 364 1179 356 1193 b 286 1179 318 1193 301 1186 b 210 1097 240 1158 226 1143 b 28 239 106 806 28 529 b 175 -32 28 144 46 -32 b 333 47 235 -32 293 7 b 460 340 410 122 460 233 b 429 444 460 378 450 414 z "},"c":{"ha":513,"x_min":0,"x_max":0,"o":"m 208 -31 b 592 226 372 -31 514 86 b 603 256 597 236 603 246 b 581 278 603 268 593 278 b 539 242 563 278 547 256 b 257 46 479 142 381 46 b 146 190 174 46 146 119 b 310 496 146 272 204 496 b 343 442 342 496 343 467 b 318 347 343 401 318 368 b 333 333 318 338 325 333 b 401 451 390 333 401 408 b 289 557 401 525 358 557 b 29 206 121 557 29 350 b 208 -31 29 96 81 -31 z "},"d":{"ha":703,"x_min":0,"x_max":0,"o":"m 354 188 b 494 -24 367 114 399 -24 b 769 201 614 -24 707 108 b 797 263 781 218 797 243 b 774 285 797 275 790 285 b 517 49 736 285 644 49 b 457 264 460 49 457 224 b 690 964 547 439 690 769 b 613 1114 690 1013 679 1114 b 347 456 457 1114 347 654 b 276 488 329 476 304 488 b 18 143 132 488 18 293 b 101 13 18 96 42 13 b 354 188 182 13 303 131 z m 449 393 b 617 1021 449 522 539 1021 b 631 982 631 1021 631 989 b 449 379 631 810 522 536 z m 343 394 b 346 275 343 354 343 315 b 110 74 321 228 168 74 b 96 101 96 74 96 92 b 343 394 96 217 218 394 z "},"e":{"ha":446,"x_min":0,"x_max":0,"o":"m 167 -18 b 524 219 318 -18 451 93 b 536 261 532 235 536 243 b 517 276 536 271 525 276 b 475 240 497 276 483 254 b 210 47 419 147 326 47 b 119 149 144 47 119 86 b 126 207 119 168 122 188 b 342 478 211 238 342 385 b 264 561 342 526 314 561 b 13 171 114 561 13 296 b 167 -18 13 72 57 -18 z m 257 496 b 281 464 275 496 281 479 b 131 260 281 390 190 296 b 257 496 139 308 201 496 z "},"f":{"ha":485,"x_min":0,"x_max":0,"o":"m 322 317 b 415 376 367 317 415 324 b 392 393 415 392 403 393 b 349 386 376 393 363 389 b 281 381 326 382 304 381 b 144 394 247 381 175 383 b 315 954 175 588 238 775 b 392 1114 342 1014 367 1064 b 404 1163 399 1129 404 1144 b 369 1204 404 1185 394 1204 b 261 1156 338 1204 282 1179 b 229 1097 246 1139 238 1118 b 21 -14 90 738 21 372 b 139 -362 21 -93 21 -362 b 367 28 317 -362 367 -108 b 279 318 367 115 349 256 z m 124 290 b 267 -8 231 235 267 104 b 144 -310 267 -71 249 -310 b 86 -100 92 -310 86 -139 b 124 290 86 31 104 161 z "},"g":{"ha":656,"x_min":0,"x_max":0,"o":"m 432 500 b 543 461 483 500 525 461 b 558 475 550 461 558 467 b 407 551 558 526 446 551 b 149 442 308 551 218 511 b 18 157 78 371 18 258 b 119 26 18 90 43 26 b 411 282 232 26 358 193 b 415 169 415 244 415 207 b 167 -447 415 35 344 -447 b 92 -387 115 -447 126 -387 b 61 -421 74 -387 61 -404 b 69 -447 61 -431 65 -439 b 172 -504 92 -486 128 -504 b 536 394 514 -504 536 156 b 485 449 536 426 518 449 b 403 376 446 449 417 408 b 132 99 372 301 218 99 b 89 153 99 99 89 124 b 211 390 89 231 160 336 b 432 500 268 450 346 500 z "},"h":{"ha":756,"x_min":0,"x_max":0,"o":"m 446 488 b 460 454 460 488 460 463 b 438 143 450 343 438 243 b 511 -47 438 82 438 -47 b 835 224 642 -47 781 117 b 843 246 838 231 843 238 b 822 274 843 260 839 274 b 789 243 807 274 797 256 b 564 36 740 171 650 36 b 526 99 528 36 526 72 l 553 447 b 474 572 553 497 536 572 b 125 157 343 572 176 267 b 167 385 131 194 156 363 b 236 514 189 428 214 469 b 399 1101 328 696 399 894 b 324 1232 399 1147 385 1232 b 31 169 118 1232 50 324 b 15 26 25 122 15 74 b 63 -57 15 -4 22 -57 b 140 21 103 -57 125 -11 l 142 25 b 446 488 175 96 385 488 z m 331 1161 b 347 1096 347 1161 347 1108 b 158 506 347 924 242 657 b 331 1161 164 600 244 1161 z "},"i":{"ha":365,"x_min":0,"x_max":0,"o":"m 136 165 b 149 289 136 207 140 249 b 190 436 158 331 190 399 b 158 467 190 458 179 467 b 58 378 100 467 75 428 b 29 207 43 329 29 258 b 156 -31 29 126 46 -31 b 425 192 254 -31 372 117 b 463 263 436 207 463 244 b 444 293 463 276 463 293 b 410 264 429 293 418 276 b 185 39 368 199 260 39 b 136 165 138 39 136 133 z m 192 679 b 126 606 154 679 126 640 b 174 553 126 578 144 553 b 240 626 211 553 240 590 b 192 679 240 654 221 679 z "},"j":{"ha":319,"x_min":0,"x_max":0,"o":"m 104 86 l 79 69 b -258 -385 -64 -26 -258 -194 b -137 -535 -258 -458 -221 -535 b 17 -458 -79 -535 -22 -499 b 210 415 200 -272 210 171 b 172 493 210 447 207 493 b 86 379 113 493 93 410 b -12 179 69 307 38 250 b -26 161 -17 174 -22 168 b -39 131 -33 151 -39 143 b -21 113 -39 119 -32 113 b 103 268 21 113 89 232 b 106 149 104 229 106 189 z m 97 26 b -142 -469 82 -85 0 -469 b -199 -389 -183 -469 -199 -424 b 97 26 -199 -237 -10 -60 z m 88 638 b 146 568 88 604 110 568 b 204 638 182 568 204 604 b 146 706 204 671 182 706 b 88 638 110 706 88 671 z "},"k":{"ha":549,"x_min":0,"x_max":0,"o":"m 149 199 b 228 161 176 189 201 175 l 415 63 b 458 49 429 56 443 49 b 488 68 471 49 488 51 b 444 131 488 94 464 117 b 276 231 392 168 333 199 b 171 285 242 250 208 271 b 444 532 260 369 349 454 b 482 583 460 544 482 563 b 453 615 482 599 468 615 b 403 582 435 615 415 593 b 150 340 318 501 231 425 b 235 819 168 501 197 661 b 293 1032 260 921 274 978 b 307 1093 300 1051 307 1072 b 272 1131 307 1117 296 1131 b 158 1025 208 1131 175 1081 b 81 650 121 903 100 775 b 39 143 54 482 39 313 b 51 -110 39 50 39 -43 b 88 -149 56 -131 64 -149 b 124 -83 122 -149 124 -108 b 149 199 124 10 139 142 z "},"l":{"ha":415,"x_min":0,"x_max":0,"o":"m 190 -54 b 481 200 306 -54 426 110 l 482 201 b 501 250 492 217 501 233 b 482 275 501 263 497 275 b 453 256 468 275 460 267 l 417 199 b 219 29 382 144 288 29 b 132 249 143 29 132 194 b 138 310 132 265 132 294 b 161 350 142 322 154 339 b 228 457 183 386 208 419 b 401 1029 311 608 401 856 b 318 1154 401 1082 383 1154 b 126 950 235 1154 156 1017 b 21 385 50 772 21 578 b 190 -54 21 276 36 -54 z m 322 1088 b 343 1036 343 1088 343 1049 b 129 438 343 860 219 589 b 128 478 128 451 128 464 b 207 897 128 611 167 764 b 322 1088 222 949 264 1088 z "},"m":{"ha":1101,"x_min":0,"x_max":0,"o":"m 422 7 b 460 32 440 7 451 18 b 747 444 501 99 681 444 b 771 388 771 444 771 403 b 758 136 771 303 758 219 b 854 -50 758 69 763 -50 b 1146 168 951 -50 1092 93 b 1160 196 1151 175 1160 186 b 1140 225 1160 208 1157 225 b 1097 189 1122 225 1107 201 b 892 24 1061 140 954 24 b 854 99 854 24 854 72 b 874 419 854 206 874 313 b 788 535 874 471 847 535 b 583 347 701 535 628 410 b 474 186 546 294 507 242 b 454 161 471 181 460 161 b 443 233 442 161 443 233 l 446 429 b 388 533 446 469 432 533 b 163 296 313 533 163 296 b 204 454 171 350 183 404 b 254 600 219 492 254 561 b 225 633 254 619 246 633 b 117 578 186 633 136 614 b 3 24 81 510 3 108 b 31 -7 3 7 13 -7 b 81 35 57 -7 71 14 b 358 444 110 99 301 444 b 372 415 372 444 372 424 l 372 329 b 422 7 372 207 378 7 z "},"n":{"ha":626,"x_min":0,"x_max":0,"o":"m 31 -50 b 88 -6 57 -50 76 -28 b 192 197 119 64 151 132 b 313 360 225 251 267 315 b 344 382 319 367 335 382 b 357 354 356 382 357 361 l 351 196 b 351 175 351 189 351 182 b 453 13 351 106 367 13 b 719 249 557 13 679 163 b 729 276 722 256 729 269 b 706 304 729 289 719 304 b 672 272 690 304 679 285 b 481 81 640 211 554 81 b 436 164 438 81 436 132 l 436 358 b 381 493 436 399 435 493 b 139 246 308 493 139 246 b 176 406 146 300 157 354 b 213 554 193 450 213 507 b 171 601 213 583 203 601 b 90 535 136 601 97 568 b 65 404 81 492 74 447 b 1 -15 38 271 1 121 b 31 -50 1 -33 11 -50 z "},"o":{"ha":511,"x_min":0,"x_max":0,"o":"m 35 158 b 168 -26 35 75 68 -26 b 276 10 207 -26 244 -11 b 425 336 382 81 425 214 b 294 526 425 419 397 526 b 35 158 129 526 35 297 z m 294 435 b 367 310 354 435 367 356 b 268 68 367 225 338 122 b 204 42 250 54 228 42 b 135 156 147 42 135 111 b 294 435 135 239 190 435 z "},"p":{"ha":651,"x_min":0,"x_max":0,"o":"m 149 97 b 174 271 153 136 163 253 b 389 483 204 326 325 483 b 431 415 424 483 431 443 b 226 75 431 322 339 75 b 158 94 188 75 175 94 b 149 90 154 94 151 93 z m 363 -24 b 721 210 525 -24 639 75 b 733 249 729 222 733 232 b 710 274 733 264 725 274 b 678 239 693 274 685 250 b 374 28 618 132 503 28 b 332 32 360 28 346 29 b 397 69 357 36 379 51 b 519 389 471 140 519 289 b 406 542 519 464 494 542 b 163 349 317 542 211 414 b 172 444 165 381 172 413 b 101 529 172 478 139 529 b 54 421 53 529 57 454 b 26 153 33 208 32 169 b -129 -539 -40 -47 -129 -331 b -53 -682 -129 -585 -117 -682 b 43 -590 -6 -682 28 -628 b 142 14 100 -450 126 -161 l 144 49 b 363 -24 185 -10 297 -24 z m 44 19 b -6 -456 35 -139 19 -299 b -53 -608 -8 -474 -29 -608 b -69 -546 -69 -608 -69 -557 b 44 19 -69 -401 -11 -114 z "},"q":{"ha":632,"x_min":0,"x_max":0,"o":"m 317 -90 b 326 -229 325 -136 326 -183 b 271 -621 326 -326 313 -537 b 249 -646 267 -628 258 -646 b 233 -589 233 -646 233 -600 b 257 -379 233 -518 244 -449 b 317 -90 274 -282 294 -186 z m 156 -550 b 231 -724 156 -596 167 -724 b 319 -640 269 -724 303 -671 b 386 -214 375 -536 386 -332 b 372 -28 386 -153 386 -87 b 397 -29 381 -29 389 -29 b 690 182 522 -29 632 82 b 714 243 700 200 714 222 b 692 272 714 258 710 272 b 654 231 672 272 661 244 b 413 36 608 144 518 36 b 369 43 397 36 383 39 b 417 257 386 114 399 186 b 453 407 428 303 453 360 b 396 449 453 433 418 449 b 331 393 365 449 344 417 b 119 69 300 340 174 69 b 96 121 97 69 96 106 b 315 476 96 233 226 413 b 382 543 338 493 382 510 b 340 578 382 569 364 578 b 183 496 281 578 225 535 b 10 121 81 399 10 264 b 92 -7 10 68 26 -7 b 135 1 107 -7 121 -3 b 331 257 201 25 300 193 b 250 -1 307 169 275 85 b 156 -550 199 -179 156 -364 z "},"r":{"ha":542,"x_min":0,"x_max":0,"o":"m 233 296 b 226 143 233 244 226 194 b 324 -51 226 78 232 -51 b 597 185 413 -51 553 113 b 608 214 603 193 608 203 b 589 243 608 228 606 243 b 553 213 574 243 561 225 b 339 14 517 158 403 14 b 313 65 313 14 313 47 b 340 261 313 132 325 196 b 347 315 344 279 347 297 b 182 510 347 439 225 444 b 186 576 185 532 186 554 b 140 685 186 604 179 685 b 58 529 85 685 58 572 b 94 413 58 488 69 446 b -25 161 83 318 28 238 b -37 131 -32 151 -37 142 b -19 113 -37 119 -31 113 b 18 133 -4 113 8 124 b 151 382 79 196 122 301 b 233 296 192 369 233 342 z "},"s":{"ha":540,"x_min":0,"x_max":0,"o":"m 222 456 b 254 593 239 499 254 547 b 210 668 254 621 244 668 b 107 506 143 668 107 560 b 119 432 107 481 111 456 b -22 167 89 336 40 244 b -39 131 -31 156 -39 144 b -19 111 -39 119 -31 111 b 17 133 -6 111 8 125 b 153 378 72 189 126 303 b 250 108 199 310 250 192 b 138 -12 250 38 211 -12 b 39 14 101 -12 68 -8 b 14 24 42 11 25 24 b -8 3 1 24 -8 17 b 7 -28 -8 -10 -1 -19 b 171 -74 47 -67 118 -74 b 596 186 372 -74 492 22 b 608 215 600 194 608 206 b 588 243 608 229 604 243 b 551 213 572 243 560 225 b 321 15 515 158 385 15 b 353 122 343 47 353 85 b 222 456 353 242 267 349 z "},"t":{"ha":429,"x_min":0,"x_max":0,"o":"m 319 658 b 433 690 340 663 419 682 b 451 717 444 697 451 703 b 432 735 451 731 444 735 b 338 724 400 735 369 728 b 368 942 358 793 368 869 b 306 1067 368 983 364 1067 b 64 690 175 1067 94 790 b -7 644 35 688 -7 682 b 26 611 -7 622 4 611 b 56 615 36 611 46 613 b 32 343 38 526 32 433 b 204 -56 32 239 60 -56 b 493 197 317 -56 440 108 b 515 254 504 215 515 233 b 496 275 515 265 507 275 b 460 243 481 275 467 256 b 231 29 418 176 317 29 b 143 293 156 29 143 238 b 146 324 143 300 144 317 b 204 408 146 324 188 379 b 319 658 250 483 297 574 z m 303 997 b 317 956 317 997 317 964 b 278 717 317 882 300 788 b 164 701 240 708 201 707 b 303 997 171 757 239 997 z m 156 626 b 254 643 188 636 221 636 b 132 404 236 578 174 457 b 156 626 138 478 139 554 z "},"u":{"ha":694,"x_min":0,"x_max":0,"o":"m 26 181 b 126 -15 26 110 28 -15 b 397 210 231 -15 343 132 b 394 157 394 192 394 175 b 486 -39 394 96 401 -39 b 782 235 592 -39 738 147 b 792 264 786 243 792 254 b 772 290 792 278 789 290 b 731 251 757 290 739 265 b 515 22 699 200 571 22 b 474 121 478 22 474 94 b 529 422 474 207 499 342 b 543 475 535 439 543 457 b 513 499 543 494 529 499 b 438 410 465 499 453 444 b 142 43 401 328 235 43 b 115 99 115 43 115 81 b 181 426 115 194 151 335 b 190 472 185 442 190 457 b 158 503 190 493 179 503 b 64 435 115 503 78 476 b 26 181 38 356 26 264 z "},"v":{"ha":554,"x_min":0,"x_max":0,"o":"m 0 446 b 19 417 0 435 19 417 b 176 24 81 336 151 124 b 218 -28 176 24 182 -28 b 260 19 251 -28 260 19 b 517 468 274 74 474 411 b 526 488 521 474 526 479 b 489 519 526 506 506 519 b 453 490 472 519 461 501 b 250 142 375 381 315 258 b 96 476 226 244 168 399 b 54 500 85 489 72 500 b 0 446 31 500 0 469 z "},"w":{"ha":803,"x_min":0,"x_max":0,"o":"m 719 328 b 664 493 719 364 715 493 b 632 454 644 493 632 472 b 657 400 632 425 646 422 b 667 311 665 383 667 332 b 567 22 667 256 640 22 b 488 339 513 22 488 292 b 447 403 488 368 485 403 b 396 385 429 403 407 401 b 349 308 382 365 364 332 b 217 149 310 251 265 197 b 136 90 201 133 158 90 b 128 110 128 90 128 104 b 224 442 128 213 176 351 b 233 469 228 450 233 460 b 189 500 233 493 208 500 b 126 471 165 500 140 492 b 19 125 83 406 19 203 b 94 1 19 72 25 1 b 385 261 182 1 385 261 b 453 -17 388 194 406 31 b 535 -54 475 -39 503 -54 b 719 328 692 -54 719 214 z "},"x":{"ha":592,"x_min":0,"x_max":0,"o":"m 339 257 b 481 479 386 331 438 403 b 490 508 486 489 490 497 b 469 531 490 519 482 531 b 446 514 458 531 451 522 b 318 317 403 450 363 382 b 193 494 318 317 272 494 b 29 242 129 494 56 294 b 19 210 24 232 19 221 b 42 189 19 196 29 189 b 178 411 78 189 156 411 b 196 378 188 411 194 385 l 243 214 b 85 -26 219 181 85 1 b 119 -56 85 -43 104 -56 b 143 -43 129 -56 138 -51 l 268 150 b 414 0 294 89 336 0 b 686 250 526 0 642 158 b 696 278 689 257 696 269 b 675 306 696 290 689 306 b 636 268 657 306 643 282 b 435 89 601 201 518 89 b 339 257 394 89 350 224 z "},"y":{"ha":632,"x_min":0,"x_max":0,"o":"m 163 -575 b 372 -433 251 -575 326 -504 b 517 314 508 -222 517 65 b 494 468 517 347 517 453 b 467 478 486 474 476 478 b 417 439 444 478 429 454 b 214 188 350 354 289 264 b 117 113 197 171 139 113 b 103 142 103 113 103 133 b 161 360 103 192 142 311 b 190 443 169 382 190 419 b 131 500 190 475 161 500 b 78 461 104 500 89 483 b 60 408 69 444 65 426 b 11 158 35 329 11 242 b 86 47 11 108 24 47 b 407 333 178 47 361 257 b 411 118 410 261 411 190 b 410 39 411 92 411 65 b 46 -425 267 -56 46 -239 b 163 -575 46 -499 78 -575 z m 403 -21 b 274 -433 390 -142 346 -336 b 161 -517 249 -465 206 -517 b 107 -428 117 -517 107 -462 b 403 -21 107 -264 285 -115 z "},"z":{"ha":524,"x_min":0,"x_max":0,"o":"m 26 163 b 149 374 65 163 138 338 b 161 421 154 389 161 421 b 271 447 192 435 238 447 b 329 400 303 447 329 436 b 179 165 329 319 236 217 b 153 126 168 156 153 142 b 186 79 153 107 172 90 b 281 -44 225 44 264 7 b -36 -453 132 -119 -36 -274 b 94 -575 -36 -531 19 -575 b 410 -162 292 -575 410 -335 b 275 135 410 -49 375 69 b 440 401 331 207 440 306 b 324 513 440 475 394 513 b 165 469 268 513 214 493 b 92 556 164 514 140 556 b 10 479 46 556 10 526 b 92 415 10 424 63 415 b 111 417 103 415 111 417 b 21 225 107 383 42 256 b 4 186 13 214 4 201 b 26 163 4 174 14 163 z m 117 458 b 101 457 111 457 107 457 b 56 485 83 457 56 463 b 85 515 56 503 67 515 b 117 458 111 515 117 488 z m 296 -118 b 300 -164 299 -133 300 -149 b 204 -440 300 -250 261 -376 b 78 -515 175 -474 125 -515 b 21 -443 35 -515 21 -481 b 296 -118 21 -289 169 -176 z "},"|":{"ha":224,"x_min":0,"x_max":0,"o":"m 83 -108 l 140 -108 l 140 985 l 83 985 z "},"~":{"ha":524,"x_min":0,"x_max":0,"o":"m 338 815 b 440 850 372 815 399 826 l 440 903 b 338 860 381 868 361 860 b 304 868 328 860 317 863 b 185 918 268 883 224 918 b 83 881 150 918 125 904 l 83 829 b 185 874 143 864 161 874 b 338 815 233 874 290 815 z "},"¡":{"ha":436,"x_min":0,"x_max":0,"o":"m 110 -278 b 192 -182 167 -278 182 -228 b 210 6 203 -128 206 -50 b 231 318 218 110 224 214 b 240 461 233 367 236 414 l 242 481 b 221 522 242 494 240 522 b 179 471 189 522 183 496 b 135 254 165 399 150 326 b 54 -115 108 132 82 8 b 42 -200 49 -142 42 -171 b 110 -278 42 -249 57 -278 z m 240 801 b 189 731 196 801 189 768 b 249 675 189 700 219 675 b 297 746 286 675 297 717 b 240 801 297 779 272 801 z "},"£":{"ha":869,"x_min":0,"x_max":0,"o":"m 521 475 b 485 499 521 497 501 499 b 347 494 439 499 393 496 b 510 989 347 494 410 989 b 618 807 608 989 565 807 b 646 839 640 807 646 819 b 500 1061 646 924 606 1061 b 226 496 300 1061 250 689 b 121 503 192 497 156 503 b 75 467 99 503 75 492 b 151 432 75 436 103 432 l 218 432 b 126 90 210 364 190 128 b 35 25 94 71 35 79 b 94 -47 35 -1 67 -47 b 114 -42 101 -47 108 -44 b 290 10 169 -15 228 10 b 607 -31 397 10 500 -31 b 858 168 718 -31 810 78 b 869 203 864 179 869 190 b 846 222 869 214 856 222 b 597 32 804 222 744 32 b 278 101 486 32 389 101 b 339 438 306 168 328 360 b 521 475 339 438 521 451 z "},"'":{"ha":274,"x_min":0,"x_max":0,"o":"m 183 628 b 210 665 203 628 208 649 b 232 910 214 708 232 904 b 185 958 232 935 210 958 b 139 910 158 958 139 936 b 158 667 139 904 153 703 b 183 628 161 649 165 628 z "},"“":{"ha":440,"x_min":0,"x_max":0,"o":"m 190 890 b 178 903 190 899 186 903 b 44 708 126 903 50 754 b 42 672 43 697 42 685 b 89 628 42 643 61 628 b 146 688 121 628 146 657 b 139 746 146 707 139 726 b 190 890 139 824 190 876 z m 357 890 b 344 903 357 899 353 903 b 211 708 293 903 217 754 b 208 672 210 697 208 685 b 256 628 208 643 228 628 b 313 688 288 628 313 657 b 306 746 313 707 306 726 b 357 890 306 824 357 876 z "},"«":{"ha":807,"x_min":0,"x_max":0,"o":"m 83 238 b 94 219 83 229 89 224 l 375 19 b 417 6 388 11 401 6 b 442 28 429 6 442 13 b 435 50 442 38 442 44 l 229 238 l 438 413 b 446 438 444 418 446 428 b 422 453 446 451 433 453 b 375 438 406 453 389 446 l 94 257 b 83 238 88 253 83 246 z m 361 238 b 372 219 361 229 367 224 l 653 19 b 694 6 665 11 679 6 b 719 28 707 6 719 13 b 713 50 719 38 719 44 l 507 238 l 715 413 b 724 438 722 418 724 428 b 700 453 724 451 711 453 b 653 438 683 453 667 446 l 372 257 b 361 238 365 253 361 246 z "},"‹":{"ha":529,"x_min":0,"x_max":0,"o":"m 83 238 b 94 219 83 229 89 224 l 375 19 b 417 6 388 11 401 6 b 442 28 429 6 442 13 b 435 50 442 38 442 44 l 229 238 l 438 413 b 446 438 444 418 446 428 b 422 453 446 451 433 453 b 375 438 406 453 389 446 l 94 257 b 83 238 88 253 83 246 z "},"›":{"ha":529,"x_min":0,"x_max":0,"o":"m 446 238 b 435 257 446 246 442 253 l 154 438 b 107 453 140 446 124 453 b 83 438 96 453 83 451 b 92 413 83 428 85 418 l 300 238 l 94 50 b 88 28 88 44 88 38 b 113 6 88 13 100 6 b 154 19 128 6 142 11 l 435 219 b 446 238 440 224 446 229 z "},"•":{"ha":417,"x_min":0,"x_max":0,"o":"m 208 206 b 293 324 282 206 293 261 b 194 415 293 375 244 415 b 114 299 132 415 114 349 b 208 206 114 244 154 206 z "},"”":{"ha":496,"x_min":0,"x_max":0,"o":"m 306 640 b 318 628 306 632 310 628 b 451 822 368 628 446 774 b 454 858 453 831 454 850 b 407 903 454 886 438 903 b 350 843 375 903 350 874 b 357 785 350 825 357 804 b 306 640 357 699 306 657 z m 139 640 b 151 628 139 632 143 628 b 285 822 201 628 279 774 b 288 858 286 831 288 850 b 240 903 288 886 271 903 b 183 843 208 903 183 874 b 190 785 183 825 190 804 b 139 640 190 699 139 657 z "},"»":{"ha":807,"x_min":0,"x_max":0,"o":"m 724 238 b 713 257 724 246 719 253 l 432 438 b 385 453 418 446 401 453 b 361 438 374 453 361 451 b 369 413 361 428 363 418 l 578 238 l 372 50 b 365 28 365 44 365 38 b 390 6 365 13 378 6 b 432 19 406 6 419 11 l 713 219 b 724 238 718 224 724 229 z m 446 238 b 435 257 446 246 442 253 l 154 438 b 107 453 140 446 124 453 b 83 438 96 453 83 451 b 92 413 83 428 85 418 l 300 238 l 94 50 b 88 28 88 44 88 38 b 113 6 88 13 100 6 b 154 19 128 6 142 11 l 435 219 b 446 238 440 224 446 229 z "},"…":{"ha":1164,"x_min":0,"x_max":0,"o":"m 196 0 b 247 71 240 0 247 33 b 188 126 247 101 217 126 b 139 56 150 126 139 86 b 196 0 139 22 164 0 z m 613 0 b 664 71 657 0 664 33 b 604 126 664 101 633 126 b 556 56 567 126 556 86 b 613 0 556 22 581 0 z m 1029 0 b 1081 71 1074 0 1081 33 b 1021 126 1081 101 1050 126 b 972 56 983 126 972 86 b 1029 0 972 22 997 0 z "},"¿":{"ha":697,"x_min":0,"x_max":0,"o":"m 422 724 b 482 668 422 693 453 668 b 531 739 519 668 531 710 b 474 794 531 772 506 794 b 422 724 429 794 422 761 z m 460 564 b 432 517 429 564 435 538 b 42 -85 411 322 42 189 b 267 -278 42 -219 143 -278 b 489 -76 375 -278 489 -190 b 415 61 489 -37 464 61 b 386 36 401 61 386 51 b 425 -78 386 24 425 -17 b 290 -206 425 -147 358 -206 b 174 -82 225 -206 174 -144 b 488 508 174 185 488 283 b 460 564 488 526 485 564 z "},"`":{"ha":383,"x_min":0,"x_max":0,"o":"m 281 600 b 300 621 292 600 300 610 b 214 792 300 651 242 743 b 128 882 194 828 172 882 b 83 838 103 882 83 863 b 151 735 83 807 126 765 b 281 600 188 690 253 600 z "},"´":{"ha":383,"x_min":0,"x_max":0,"o":"m 103 600 b 135 621 115 600 135 621 b 232 735 161 650 200 696 b 290 808 251 758 274 783 b 300 838 296 817 300 826 b 256 882 300 863 281 882 b 214 861 239 882 224 874 b 174 790 199 840 186 813 l 93 649 b 83 621 89 640 83 631 b 103 600 83 610 92 600 z "},"ˆ":{"ha":539,"x_min":0,"x_max":0,"o":"m 276 822 b 261 815 271 822 265 819 l 96 642 b 83 615 90 635 83 626 b 101 596 83 603 93 596 b 121 604 108 596 115 600 l 276 732 l 422 603 b 442 594 428 599 435 594 b 456 613 450 594 456 601 b 443 642 456 624 449 635 l 293 815 b 276 822 289 819 282 822 z "},"˜":{"ha":543,"x_min":0,"x_max":0,"o":"m 357 601 b 460 706 414 601 460 638 b 440 728 460 718 454 728 b 419 708 425 728 419 719 b 357 668 419 685 388 668 b 206 743 290 668 289 743 b 83 629 154 743 83 693 b 103 608 83 619 88 608 b 122 629 118 608 122 619 b 206 678 122 654 160 678 b 357 601 263 678 260 601 z "},"¨":{"ha":469,"x_min":0,"x_max":0,"o":"m 140 606 b 192 676 185 606 192 639 b 132 732 192 707 161 732 b 83 661 94 732 83 692 b 140 606 83 628 108 606 z m 335 606 b 386 676 379 606 386 639 b 326 732 386 707 356 732 b 278 661 289 732 278 692 b 335 606 278 628 303 606 z "},"˚":{"ha":363,"x_min":0,"x_max":0,"o":"m 156 622 b 279 778 229 622 279 713 b 208 878 279 822 263 878 b 83 718 132 878 83 785 b 156 622 83 674 103 622 z m 210 829 b 238 782 229 829 238 797 b 157 663 238 744 203 663 b 138 706 138 663 138 692 b 210 829 138 742 164 829 z "},"Æ":{"ha":1204,"x_min":0,"x_max":0,"o":"m 910 51 b 688 374 726 51 688 279 b 689 400 688 385 689 393 b 1075 479 768 411 1000 463 b 1135 521 1110 488 1135 496 b 1096 540 1135 539 1115 540 b 710 514 1032 540 771 517 b 1039 993 740 639 875 993 b 1168 868 1150 993 1128 868 b 1196 915 1196 868 1196 893 b 1043 1064 1196 1010 1136 1064 b 661 722 871 1064 740 894 b 674 993 664 813 674 903 l 674 997 b 642 1047 674 1015 664 1047 b 517 975 607 1047 517 1017 b 485 822 517 919 507 874 b -49 -81 408 644 168 -81 b -122 -68 -75 -81 -99 -68 b -153 -92 -136 -68 -153 -75 b -54 -133 -153 -128 -79 -133 b 357 339 169 -133 276 171 b 556 369 424 346 489 360 b 851 -37 576 206 631 -37 b 1251 196 1010 -37 1163 69 b 1281 257 1261 210 1281 239 b 1257 282 1281 271 1271 282 b 1185 197 1231 282 1208 225 b 910 51 1094 89 1003 51 z m 546 424 b 385 403 492 417 439 411 b 515 718 425 492 500 718 b 546 424 526 718 536 506 z "},"Œ":{"ha":1271,"x_min":0,"x_max":0,"o":"m 657 175 b 918 -65 689 42 769 -65 b 1318 168 1078 -65 1229 42 b 1347 229 1329 183 1347 211 b 1324 254 1347 243 1338 254 b 1251 169 1297 254 1275 199 b 988 21 1188 89 1093 21 b 781 346 821 21 781 214 b 785 394 781 363 782 378 b 1035 453 868 414 951 435 b 1147 474 1065 460 1118 474 l 1151 474 b 1197 525 1175 479 1197 499 b 1146 532 1197 532 1154 532 b 800 506 1074 532 860 524 b 1106 965 832 635 942 965 b 1235 840 1217 965 1194 840 b 1263 888 1263 840 1263 867 b 1110 1036 1263 982 1203 1036 b 763 763 950 1036 833 890 b 586 1006 744 849 697 1006 b 524 1001 565 1006 544 1001 b 435 1015 493 1001 465 1015 b 25 336 168 1015 25 599 b 303 -56 25 158 86 -56 b 657 175 461 -56 578 47 z m 704 639 b 653 475 683 586 665 531 b 543 408 615 467 543 460 b 625 361 543 364 589 361 l 642 361 l 640 325 l 642 289 b 346 36 589 169 490 36 b 153 296 196 36 153 169 b 518 924 153 531 307 924 b 704 639 650 924 693 742 z "},"æ":{"ha":710,"x_min":0,"x_max":0,"o":"m 781 276 b 739 240 761 276 747 254 b 472 46 683 149 589 46 b 383 149 408 46 383 89 b 390 207 383 168 386 188 b 606 478 475 238 606 385 b 528 561 606 526 578 561 b 350 421 447 561 386 485 b 315 381 332 415 315 381 b 110 78 315 381 172 78 b 92 111 93 78 92 100 b 346 486 92 275 201 403 b 360 503 353 490 360 494 b 314 546 360 522 333 546 b 0 146 151 546 0 292 b 83 1 0 93 15 1 b 276 183 157 1 240 126 b 436 -18 276 79 319 -18 b 788 219 586 -18 717 94 b 800 261 796 235 800 243 b 781 276 800 271 789 276 z m 544 464 b 394 260 544 390 454 296 b 521 496 403 308 465 496 b 544 464 539 496 544 479 z "},"œ":{"ha":793,"x_min":0,"x_max":0,"o":"m 367 107 b 514 -18 385 31 433 -18 b 872 222 664 -18 800 93 b 883 261 879 236 883 244 b 864 276 883 271 872 276 b 822 240 844 276 831 254 b 557 47 767 149 674 47 b 467 149 492 47 467 88 b 474 207 467 168 469 188 b 689 478 558 238 689 385 b 611 561 689 526 661 561 b 421 396 521 561 457 468 b 294 526 408 464 371 526 b 35 158 129 526 35 297 b 168 -26 35 75 68 -26 b 367 107 251 -26 326 39 z m 628 464 b 478 260 628 390 538 296 b 604 496 486 308 549 496 b 628 464 622 496 628 479 z m 294 435 b 367 310 354 435 367 356 b 268 68 367 225 338 124 b 204 42 250 54 228 42 b 135 156 147 42 135 111 b 294 435 135 238 190 435 z "},"Ÿ":{"ha":817,"x_min":0,"x_max":0,"o":"m 363 979 b 414 1050 407 979 414 1013 b 354 1106 414 1082 383 1106 b 306 1035 317 1106 306 1065 b 363 979 306 1003 331 979 z m 557 979 b 608 1050 601 979 608 1013 b 549 1106 608 1082 578 1106 b 500 1035 511 1106 500 1065 b 557 979 500 1003 525 979 z m 600 510 b 399 -231 589 307 522 -69 b 269 -299 368 -271 321 -299 b 110 -224 182 -299 138 -224 b 88 -244 97 -224 88 -232 b 125 -303 88 -262 111 -290 b 267 -358 163 -336 215 -358 b 757 676 608 -358 726 429 b 778 871 765 739 772 804 l 778 878 b 743 918 778 900 771 918 l 719 918 b 664 829 672 918 664 829 b 625 729 661 804 636 756 b 221 126 575 610 364 126 b 150 310 150 126 150 261 b 217 874 150 494 169 694 b 221 897 218 882 221 889 b 174 938 221 926 200 938 b 132 931 160 938 144 938 b 60 790 93 913 60 790 b 17 338 17 639 17 485 b 178 18 17 229 28 18 b 600 510 368 18 536 360 z "},"™":{"ha":936,"x_min":0,"x_max":0,"o":"m 449 250 l 514 250 l 514 549 l 628 250 l 672 250 b 786 549 672 250 786 550 l 786 250 l 853 250 l 853 622 l 754 622 l 651 350 l 546 622 l 449 622 z m 200 250 l 263 250 l 263 572 l 379 572 l 379 622 l 83 622 l 83 572 l 200 572 z "},"ž":{"ha":524,"x_min":0,"x_max":0,"o":"m 272 594 b 290 600 279 594 285 596 l 476 775 b 490 801 483 782 490 790 b 471 821 490 814 481 821 b 449 813 463 821 456 817 l 272 685 l 108 814 b 86 822 103 819 93 822 b 69 804 76 822 69 815 b 83 775 69 793 76 782 l 254 600 b 272 594 258 596 267 594 z m 26 163 b 149 374 65 163 138 338 b 161 421 154 389 161 421 b 271 447 192 435 238 447 b 329 400 303 447 329 436 b 179 165 329 319 236 217 b 153 126 168 156 153 142 b 186 79 153 107 172 90 b 281 -44 225 44 264 7 b -36 -453 132 -119 -36 -274 b 94 -575 -36 -531 19 -575 b 410 -162 292 -575 410 -335 b 275 135 410 -49 375 69 b 440 401 331 207 440 306 b 324 513 440 475 394 513 b 165 469 268 513 214 493 b 92 556 164 514 140 556 b 10 479 46 556 10 526 b 92 415 10 424 63 415 b 111 417 103 415 111 417 b 21 225 107 383 42 256 b 4 186 13 214 4 201 b 26 163 4 174 14 163 z m 117 458 b 101 457 111 457 107 457 b 56 485 83 457 56 463 b 85 515 56 503 67 515 b 117 458 111 515 117 488 z m 296 -118 b 300 -164 299 -133 300 -149 b 204 -440 300 -250 261 -376 b 78 -515 175 -474 125 -515 b 21 -443 35 -515 21 -481 b 296 -118 21 -289 169 -176 z "},"Ž":{"ha":761,"x_min":0,"x_max":0,"o":"m 453 942 b 471 947 460 942 465 943 l 657 1122 b 671 1149 664 1129 671 1138 b 651 1168 671 1161 661 1168 b 629 1160 643 1168 636 1164 l 453 1032 l 289 1161 b 267 1169 283 1167 274 1169 b 250 1151 257 1169 250 1163 b 264 1122 250 1140 257 1129 l 435 947 b 453 942 439 943 447 942 z m 626 -21 b 663 -14 640 -21 650 -19 b 750 133 696 1 750 97 b 714 160 750 151 729 160 b 678 143 699 160 689 154 b 429 74 608 69 524 76 l 183 65 b 413 346 261 158 338 251 b 633 651 490 444 563 547 b 715 775 661 693 686 735 b 761 861 732 797 761 832 b 732 886 761 879 747 886 l 175 886 b 164 889 171 888 168 889 b 149 885 158 889 153 888 b 61 728 114 868 61 765 b 99 701 61 708 83 701 b 133 718 114 701 122 707 b 388 792 200 788 296 792 l 536 792 b 621 778 581 792 621 789 b 206 203 621 739 260 272 b 110 86 181 171 138 110 l 107 85 b 67 24 86 68 67 51 b 124 -33 67 -4 96 -33 l 132 -32 b 406 -12 221 -15 314 -12 l 515 -12 b 579 -17 538 -12 558 -14 b 626 -21 594 -19 611 -21 z "},"š":{"ha":540,"x_min":0,"x_max":0,"o":"m 203 733 b 221 739 210 733 215 735 l 407 914 b 421 940 414 921 421 929 b 401 960 421 953 411 960 b 379 951 393 960 386 956 l 203 824 l 39 953 b 17 961 33 958 24 961 b 0 943 7 961 0 954 b 14 914 0 932 7 921 l 185 739 b 203 733 189 735 197 733 z m 222 456 b 254 593 239 499 254 547 b 210 668 254 621 244 668 b 107 506 143 668 107 560 b 119 432 107 481 111 456 b -22 167 89 336 40 244 b -39 131 -31 156 -39 144 b -19 111 -39 119 -31 111 b 17 133 -6 111 8 125 b 153 378 72 189 126 303 b 250 108 199 310 250 192 b 138 -12 250 38 211 -12 b 39 14 101 -12 68 -8 b 14 24 42 11 25 24 b -8 3 1 24 -8 17 b 7 -28 -8 -10 -1 -19 b 171 -74 47 -67 118 -74 b 596 186 372 -74 492 22 b 608 215 600 194 608 206 b 588 243 608 229 604 243 b 551 213 572 243 560 225 b 321 15 515 158 385 15 b 353 122 343 47 353 85 b 222 456 353 242 267 349 z "},"Š":{"ha":774,"x_min":0,"x_max":0,"o":"m 564 1039 b 582 1044 571 1039 576 1040 l 768 1219 b 782 1246 775 1226 782 1235 b 763 1265 782 1258 772 1265 b 740 1257 754 1265 747 1261 l 564 1129 l 400 1258 b 378 1267 394 1264 385 1267 b 361 1249 368 1267 361 1260 b 375 1219 361 1238 368 1226 l 546 1044 b 564 1039 550 1040 558 1039 z m 590 788 b 626 753 590 767 606 753 b 753 817 664 753 726 792 b 794 910 778 840 794 875 b 644 990 794 979 696 990 b 154 729 481 990 154 949 b 572 193 154 479 572 349 b 181 25 572 56 281 25 b 44 43 135 25 90 43 b 0 13 19 43 0 43 b 104 -28 0 -24 81 -25 b 178 -32 129 -31 153 -32 b 672 222 336 -32 672 8 b 285 746 672 440 285 574 b 519 938 285 850 432 922 b 614 944 550 943 582 944 b 682 917 632 944 682 944 b 590 788 682 874 590 833 z "},"ÿ":{"ha":632,"x_min":0,"x_max":0,"o":"m 232 606 b 283 676 276 606 283 639 b 224 732 283 707 253 732 b 175 661 186 732 175 692 b 232 606 175 628 200 606 z m 426 606 b 478 676 471 606 478 639 b 418 732 478 707 447 732 b 369 661 381 732 369 692 b 426 606 369 628 394 606 z m 163 -575 b 372 -433 251 -575 326 -504 b 517 314 508 -222 517 65 b 494 468 517 347 517 453 b 467 478 486 474 476 478 b 417 439 444 478 429 454 b 214 188 350 354 289 264 b 117 113 197 171 139 113 b 103 142 103 113 103 133 b 161 360 103 192 142 311 b 190 443 169 382 190 419 b 131 500 190 475 161 500 b 78 461 104 500 89 483 b 60 408 69 444 65 426 b 11 158 35 329 11 242 b 86 47 11 108 24 47 b 407 333 178 47 361 257 b 411 118 410 261 411 190 b 410 39 411 92 411 65 b 46 -425 267 -56 46 -239 b 163 -575 46 -499 78 -575 z m 403 -21 b 274 -433 390 -142 346 -336 b 161 -517 249 -465 206 -517 b 107 -428 117 -517 107 -462 b 403 -21 107 -264 285 -115 z "},"ý":{"ha":632,"x_min":0,"x_max":0,"o":"m 163 -575 b 372 -433 251 -575 326 -504 b 517 314 508 -222 517 65 b 494 468 517 347 517 453 b 467 478 486 474 476 478 b 417 439 444 478 429 454 b 214 188 350 354 289 264 b 117 113 197 171 139 113 b 103 142 103 113 103 133 b 161 360 103 192 142 311 b 190 443 169 382 190 419 b 131 500 190 475 161 500 b 78 461 104 500 89 483 b 60 408 69 444 65 426 b 11 158 35 329 11 242 b 86 47 11 108 24 47 b 407 333 178 47 361 257 b 411 118 410 261 411 190 b 410 39 411 92 411 65 b 46 -425 267 -56 46 -239 b 163 -575 46 -499 78 -575 z m 403 -21 b 274 -433 390 -142 346 -336 b 161 -517 249 -465 206 -517 b 107 -428 117 -517 107 -462 b 403 -21 107 -264 285 -115 z m 297 586 b 329 607 310 586 329 607 b 426 721 356 636 394 682 b 485 794 446 744 468 769 b 494 824 490 803 494 813 b 450 868 494 849 475 868 b 408 847 433 868 418 860 b 368 776 393 826 381 799 l 288 635 b 278 607 283 626 278 617 b 297 586 278 596 286 586 z "},"ü":{"ha":694,"x_min":0,"x_max":0,"o":"m 246 606 b 297 676 290 606 297 639 b 238 732 297 707 267 732 b 189 661 200 732 189 692 b 246 606 189 628 214 606 z m 440 606 b 492 676 485 606 492 639 b 432 732 492 707 461 732 b 383 661 394 732 383 692 b 440 606 383 628 408 606 z m 26 181 b 126 -15 26 110 28 -15 b 397 210 231 -15 343 132 b 394 157 394 192 394 175 b 486 -39 394 96 401 -39 b 782 235 592 -39 738 147 b 792 264 786 243 792 254 b 772 290 792 278 789 290 b 731 251 757 290 739 265 b 515 22 699 200 571 22 b 474 121 478 22 474 94 b 529 422 474 207 499 342 b 543 475 535 439 543 457 b 513 499 543 494 529 499 b 438 410 465 499 453 444 b 142 43 401 328 235 43 b 115 99 115 43 115 81 b 181 426 115 194 151 335 b 190 472 185 442 190 457 b 158 503 190 493 179 503 b 64 435 115 503 78 476 b 26 181 38 356 26 264 z "},"û":{"ha":694,"x_min":0,"x_max":0,"o":"m 328 794 b 313 788 322 794 317 793 l 147 614 b 135 588 142 607 135 599 b 153 568 135 575 143 568 b 172 576 160 568 167 571 l 328 704 l 474 575 b 493 567 478 569 486 567 b 507 585 501 567 507 572 b 494 614 507 596 501 606 l 344 788 b 328 794 340 793 333 794 z m 26 181 b 126 -15 26 110 28 -15 b 397 210 231 -15 343 132 b 394 157 394 192 394 175 b 486 -39 394 96 401 -39 b 782 235 592 -39 738 147 b 792 264 786 243 792 254 b 772 290 792 278 789 290 b 731 251 757 290 739 265 b 515 22 699 200 571 22 b 474 121 478 22 474 94 b 529 422 474 207 499 342 b 543 475 535 439 543 457 b 513 499 543 494 529 499 b 438 410 465 499 453 444 b 142 43 401 328 235 43 b 115 99 115 43 115 81 b 181 426 115 194 151 335 b 190 472 185 442 190 457 b 158 503 190 493 179 503 b 64 435 115 503 78 476 b 26 181 38 356 26 264 z "},"ú":{"ha":694,"x_min":0,"x_max":0,"o":"m 311 558 b 343 579 322 558 332 568 b 440 693 378 615 408 654 b 499 767 460 717 482 742 b 508 796 504 775 508 785 b 464 840 508 821 489 840 b 422 819 447 840 432 832 b 382 749 407 799 394 771 l 301 607 b 292 579 297 599 292 589 b 311 558 292 568 300 558 z m 26 181 b 126 -15 26 110 28 -15 b 397 210 231 -15 343 132 b 394 157 394 192 394 175 b 486 -39 394 96 401 -39 b 782 235 592 -39 738 147 b 792 264 786 243 792 254 b 772 290 792 278 789 290 b 731 251 757 290 739 265 b 515 22 699 200 571 22 b 474 121 478 22 474 94 b 529 422 474 207 499 342 b 543 475 535 439 543 457 b 513 499 543 494 529 499 b 438 410 465 499 453 444 b 142 43 401 328 235 43 b 115 99 115 43 115 81 b 181 426 115 194 151 335 b 190 472 185 442 190 457 b 158 503 190 493 179 503 b 64 435 115 503 78 476 b 26 181 38 356 26 264 z "},"ù":{"ha":694,"x_min":0,"x_max":0,"o":"m 350 558 b 369 579 361 558 369 568 b 360 607 369 589 364 599 l 279 749 b 239 819 267 771 254 799 b 197 840 229 832 214 840 b 153 796 172 840 153 821 b 163 767 153 785 157 775 b 221 693 179 742 201 717 b 318 579 253 654 283 615 b 350 558 329 568 339 558 z m 26 181 b 126 -15 26 110 28 -15 b 397 210 231 -15 343 132 b 394 157 394 192 394 175 b 486 -39 394 96 401 -39 b 782 235 592 -39 738 147 b 792 264 786 243 792 254 b 772 290 792 278 789 290 b 731 251 757 290 739 265 b 515 22 699 200 571 22 b 474 121 478 22 474 94 b 529 422 474 207 499 342 b 543 475 535 439 543 457 b 513 499 543 494 529 499 b 438 410 465 499 453 444 b 142 43 401 328 235 43 b 115 99 115 43 115 81 b 181 426 115 194 151 335 b 190 472 185 442 190 457 b 158 503 190 493 179 503 b 64 435 115 503 78 476 b 26 181 38 356 26 264 z "},"÷":{"ha":660,"x_min":0,"x_max":0,"o":"m 331 319 b 374 363 356 319 374 338 b 331 408 374 386 354 408 b 286 363 307 408 286 386 b 331 319 286 338 306 319 z m 331 50 b 374 93 356 50 374 69 b 331 138 374 118 356 138 b 286 93 307 138 286 118 b 331 50 286 69 306 50 z m 83 206 l 576 206 l 576 251 l 83 251 z "},"ö":{"ha":511,"x_min":0,"x_max":0,"o":"m 35 158 b 168 -26 35 75 68 -26 b 276 10 207 -26 244 -11 b 425 336 382 81 425 214 b 294 526 425 419 397 526 b 35 158 129 526 35 297 z m 294 435 b 367 310 354 435 367 356 b 268 68 367 225 338 122 b 204 42 250 54 228 42 b 135 156 147 42 135 111 b 294 435 135 238 190 435 z m 218 606 b 269 676 263 606 269 639 b 210 732 269 707 239 732 b 161 661 172 732 161 692 b 218 606 161 628 186 606 z m 413 606 b 464 676 457 606 464 639 b 404 732 464 707 433 732 b 356 661 367 732 356 692 b 413 606 356 628 381 606 z "},"õ":{"ha":511,"x_min":0,"x_max":0,"o":"m 35 158 b 168 -26 35 75 68 -26 b 276 10 207 -26 244 -11 b 425 336 382 81 425 214 b 294 526 425 419 397 526 b 35 158 129 526 35 297 z m 294 435 b 367 310 354 435 367 356 b 268 68 367 225 338 122 b 204 42 250 54 228 42 b 135 156 147 42 135 111 b 294 435 135 238 190 435 z m 385 574 b 488 678 442 574 488 610 b 468 700 488 690 482 700 b 447 681 453 700 447 692 b 385 640 447 657 415 640 b 233 715 318 640 317 715 b 111 601 182 715 111 665 b 131 581 111 592 115 581 b 150 601 146 581 150 592 b 233 650 150 626 188 650 b 385 574 290 650 288 574 z "},"ô":{"ha":511,"x_min":0,"x_max":0,"o":"m 35 158 b 168 -26 35 75 68 -26 b 276 10 207 -26 244 -11 b 425 336 382 81 425 214 b 294 526 425 419 397 526 b 35 158 129 526 35 297 z m 294 435 b 367 310 354 435 367 356 b 268 68 367 225 338 122 b 204 42 250 54 228 42 b 135 156 147 42 135 111 b 294 435 135 238 190 435 z m 300 781 b 285 774 294 781 289 779 l 119 600 b 107 574 114 593 107 585 b 125 554 107 561 115 554 b 144 563 132 554 139 557 l 300 690 l 446 561 b 465 553 450 556 458 553 b 479 571 474 553 479 558 b 467 600 479 582 474 592 l 317 774 b 300 781 313 779 306 781 z "},"ó":{"ha":511,"x_min":0,"x_max":0,"o":"m 35 158 b 168 -26 35 75 68 -26 b 276 10 207 -26 244 -11 b 425 336 382 81 425 214 b 294 526 425 419 397 526 b 35 158 129 526 35 297 z m 294 435 b 367 310 354 435 367 356 b 268 68 367 225 338 122 b 204 42 250 54 228 42 b 135 156 147 42 135 111 b 294 435 135 238 190 435 z m 297 572 b 426 707 325 572 382 653 b 494 810 451 738 494 779 b 450 854 494 835 475 854 b 368 763 406 854 389 799 l 288 621 b 278 593 283 613 278 603 b 297 572 278 582 286 572 z "},"ò":{"ha":511,"x_min":0,"x_max":0,"o":"m 35 158 b 168 -26 35 75 68 -26 b 276 10 207 -26 244 -11 b 425 336 382 81 425 214 b 294 526 425 419 397 526 b 35 158 129 526 35 297 z m 294 435 b 367 310 354 435 367 356 b 268 68 367 225 338 122 b 204 42 250 54 228 42 b 135 156 147 42 135 111 b 294 435 135 238 190 435 z m 308 572 b 328 593 319 572 328 582 b 318 621 328 603 322 613 l 238 763 b 156 854 217 799 200 854 b 111 810 131 854 111 835 b 179 707 111 779 154 738 b 308 572 224 653 281 572 z "},"ñ":{"ha":626,"x_min":0,"x_max":0,"o":"m 399 657 b 501 761 456 657 501 693 b 482 783 501 774 496 783 b 461 764 467 783 461 775 b 399 724 461 740 429 724 b 247 799 332 724 331 799 b 125 685 196 799 125 749 b 144 664 125 675 129 664 b 164 685 160 664 164 675 b 247 733 164 710 201 733 b 399 657 304 733 301 657 z m 31 -50 b 88 -6 57 -50 76 -28 b 192 197 119 64 151 132 b 313 360 225 251 267 315 b 344 382 319 367 335 382 b 357 354 356 382 357 361 l 351 196 b 351 175 351 189 351 182 b 453 13 351 106 367 13 b 719 249 557 13 679 163 b 729 276 722 256 729 269 b 706 304 729 289 719 304 b 672 272 690 304 679 285 b 481 81 640 211 554 81 b 436 164 438 81 436 132 l 436 358 b 381 493 436 399 435 493 b 139 246 308 493 139 246 b 176 406 146 300 157 354 b 213 554 193 450 213 507 b 171 601 213 583 203 601 b 90 535 136 601 97 568 b 65 404 81 492 74 447 b 1 -15 38 271 1 121 b 31 -50 1 -33 11 -50 z "},"ï":{"ha":365,"x_min":0,"x_max":0,"o":"m 65 536 b 117 607 110 536 117 569 b 57 663 117 638 86 663 b 8 592 19 663 8 622 b 65 536 8 558 33 536 z m 260 536 b 311 607 304 536 311 569 b 251 663 311 638 281 663 b 203 592 214 663 203 622 b 260 536 203 558 228 536 z m 136 165 b 149 289 136 207 140 249 b 190 436 158 331 190 399 b 158 467 190 458 179 467 b 58 378 100 467 75 428 b 29 207 43 329 29 258 b 156 -31 29 126 46 -31 b 425 192 254 -31 372 117 b 463 263 436 207 463 244 b 444 293 463 276 463 293 b 410 264 429 293 418 276 b 185 39 368 199 260 39 b 136 165 138 39 136 133 z "},"î":{"ha":365,"x_min":0,"x_max":0,"o":"m 147 739 b 132 732 142 739 136 738 l -33 558 b -46 532 -39 551 -46 543 b -28 513 -46 519 -37 513 b -8 521 -21 513 -14 515 l 147 649 l 293 519 b 313 511 297 514 306 511 b 326 529 321 511 326 517 b 314 558 326 540 321 550 l 164 732 b 147 739 160 738 153 739 z m 136 165 b 149 289 136 207 140 249 b 190 436 158 331 190 399 b 158 467 190 458 179 467 b 58 378 100 467 75 428 b 29 207 43 329 29 258 b 156 -31 29 126 46 -31 b 425 192 254 -31 372 117 b 463 263 436 207 463 244 b 444 293 463 276 463 293 b 410 264 429 293 418 276 b 185 39 368 199 260 39 b 136 165 138 39 136 133 z "},"í":{"ha":365,"x_min":0,"x_max":0,"o":"m 117 531 b 246 665 144 531 201 611 b 314 768 271 696 314 738 b 269 813 314 793 294 813 b 188 721 225 813 208 757 l 107 579 b 97 551 103 571 97 561 b 117 531 97 540 106 531 z m 136 165 b 149 289 136 207 140 249 b 190 436 158 331 190 399 b 158 467 190 458 179 467 b 58 378 100 467 75 428 b 29 207 43 329 29 258 b 156 -31 29 126 46 -31 b 425 192 254 -31 372 117 b 463 263 436 207 463 244 b 444 293 463 276 463 293 b 410 264 429 293 418 276 b 185 39 368 199 260 39 b 136 165 138 39 136 133 z "},"ì":{"ha":365,"x_min":0,"x_max":0,"o":"m 158 531 b 178 551 169 531 178 540 b 168 579 178 561 172 571 l 88 721 b 6 813 67 757 50 813 b -39 768 -19 813 -39 793 b 29 665 -39 738 4 696 b 158 531 74 611 131 531 z m 136 165 b 149 289 136 207 140 249 b 190 436 158 331 190 399 b 158 467 190 458 179 467 b 58 378 100 467 75 428 b 29 207 43 329 29 258 b 156 -31 29 126 46 -31 b 425 192 254 -31 372 117 b 463 263 436 207 463 244 b 444 293 463 276 463 293 b 410 264 429 293 418 276 b 185 39 368 199 260 39 b 136 165 138 39 136 133 z "},"ë":{"ha":446,"x_min":0,"x_max":0,"o":"m 167 -18 b 524 219 319 -18 451 93 b 536 261 533 236 536 243 b 517 276 536 271 525 276 b 475 240 499 276 483 254 b 210 47 422 149 324 47 b 147 67 181 47 161 54 b 119 144 126 86 119 115 b 126 207 119 168 122 192 b 342 478 215 239 342 389 b 264 561 342 526 314 561 b 154 511 224 561 186 542 b 13 171 67 428 13 265 b 90 0 13 101 33 38 b 167 -18 113 -15 140 -18 z m 257 496 b 281 464 275 496 281 479 b 131 260 281 390 188 294 b 222 475 136 297 178 425 b 257 496 233 488 246 496 z m 182 619 b 233 690 226 619 233 653 b 174 746 233 721 203 746 b 125 675 136 746 125 706 b 182 619 125 642 150 619 z m 376 619 b 428 690 421 619 428 653 b 368 746 428 721 397 746 b 319 675 331 746 319 706 b 376 619 319 642 344 619 z "},"ê":{"ha":446,"x_min":0,"x_max":0,"o":"m 167 -18 b 524 219 319 -18 451 93 b 536 261 533 236 536 243 b 517 276 536 271 525 276 b 475 240 499 276 483 254 b 210 47 422 149 324 47 b 147 67 181 47 161 54 b 119 144 126 86 119 115 b 126 207 119 168 122 192 b 342 478 215 239 342 389 b 264 561 342 526 314 561 b 154 511 224 561 186 542 b 13 171 67 428 13 265 b 90 0 13 101 33 38 b 167 -18 113 -15 140 -18 z m 257 496 b 281 464 275 496 281 479 b 131 260 281 390 188 294 b 222 475 136 297 178 425 b 257 496 233 488 246 496 z m 244 794 b 229 788 239 794 233 793 l 64 614 b 51 588 58 607 51 599 b 69 568 51 575 60 568 b 89 576 76 568 83 571 l 244 704 l 390 575 b 410 567 394 569 403 567 b 424 585 418 567 424 572 b 411 614 424 596 418 606 l 261 788 b 244 794 257 793 250 794 z "},"é":{"ha":446,"x_min":0,"x_max":0,"o":"m 167 -18 b 524 219 319 -18 451 93 b 536 261 533 236 536 243 b 517 276 536 271 525 276 b 475 240 499 276 483 254 b 210 47 422 149 324 47 b 147 67 181 47 161 54 b 119 144 126 86 119 115 b 126 207 119 168 122 192 b 342 478 215 239 342 389 b 264 561 342 526 314 561 b 154 511 224 561 186 542 b 13 171 67 428 13 265 b 90 0 13 101 33 38 b 167 -18 113 -15 140 -18 z m 257 496 b 281 464 275 496 281 479 b 131 260 281 390 188 294 b 222 475 136 297 178 425 b 257 496 233 488 246 496 z m 256 614 b 385 749 283 614 340 694 b 453 851 410 779 453 821 b 408 896 453 876 433 896 b 326 804 364 896 347 840 l 246 663 b 236 635 242 654 236 644 b 256 614 236 624 244 614 z "},"è":{"ha":446,"x_min":0,"x_max":0,"o":"m 167 -18 b 524 219 319 -18 451 93 b 536 261 533 236 536 243 b 517 276 536 271 525 276 b 475 240 499 276 483 254 b 210 47 422 149 324 47 b 147 67 181 47 161 54 b 119 144 126 86 119 115 b 126 207 119 168 122 192 b 342 478 215 239 342 389 b 264 561 342 526 314 561 b 154 511 224 561 186 542 b 13 171 67 428 13 265 b 90 0 13 101 33 38 b 167 -18 113 -15 140 -18 z m 257 496 b 281 464 275 496 281 479 b 131 260 281 390 188 294 b 222 475 136 297 178 425 b 257 496 233 488 246 496 z m 267 614 b 286 635 278 614 286 624 b 276 663 286 644 281 654 l 197 804 b 114 896 176 840 158 896 b 69 851 89 896 69 876 b 136 749 69 821 111 779 b 267 614 181 694 239 614 z "},"ç":{"ha":513,"x_min":0,"x_max":0,"o":"m 318 -12 b 592 226 435 26 531 118 b 603 256 597 236 603 246 b 581 278 603 268 593 278 b 539 242 563 278 547 256 b 257 46 479 142 381 46 b 146 190 174 46 146 119 b 310 496 146 271 203 496 b 343 442 342 496 343 467 b 318 347 343 401 318 368 b 333 333 318 338 325 333 b 401 451 390 333 401 408 b 289 557 401 525 358 557 b 29 206 121 557 29 350 b 208 -31 29 96 81 -31 b 251 -28 222 -31 238 -29 b 261 -85 257 -46 261 -65 b 193 -144 261 -115 222 -144 l 164 -140 b 136 -171 147 -140 136 -156 b 189 -201 136 -197 169 -201 b 325 -82 261 -201 325 -161 b 318 -12 325 -58 324 -35 z "},"å":{"ha":585,"x_min":0,"x_max":0,"o":"m 308 594 b 432 750 382 594 432 685 b 361 850 432 794 415 850 b 236 690 285 850 236 757 b 308 594 236 646 256 594 z m 363 801 b 390 754 382 801 390 769 b 310 635 390 717 356 635 b 290 678 290 635 290 664 b 363 801 290 714 317 801 z m 661 225 b 639 251 661 240 656 251 b 600 217 619 251 600 217 b 393 29 563 167 458 29 b 349 165 350 29 349 136 b 369 319 349 214 354 272 b 394 400 376 340 394 381 b 363 422 394 418 376 422 b 315 381 336 422 325 401 b 110 78 289 324 172 78 b 92 111 93 78 92 100 b 210 383 92 215 138 310 b 346 486 250 425 296 457 b 360 503 353 490 360 494 b 314 546 360 522 333 546 b 0 146 151 546 0 292 b 83 1 0 93 15 1 b 278 185 157 1 242 128 b 381 -31 278 119 289 -31 b 631 168 478 -31 579 96 b 661 225 640 182 661 208 z "},"ä":{"ha":585,"x_min":0,"x_max":0,"o":"m 196 606 b 247 676 240 606 247 639 b 188 732 247 707 217 732 b 139 661 150 732 139 692 b 196 606 139 628 164 606 z m 390 606 b 442 676 435 606 442 639 b 382 732 442 707 411 732 b 333 661 344 732 333 692 b 390 606 333 628 358 606 z m 661 225 b 639 251 661 240 656 251 b 600 217 619 251 600 217 b 393 29 563 167 458 29 b 349 165 350 29 349 136 b 369 319 349 214 354 272 b 394 400 376 340 394 381 b 363 422 394 418 376 422 b 315 381 336 422 325 401 b 110 78 289 324 172 78 b 92 111 93 78 92 100 b 210 383 92 215 138 310 b 346 486 250 425 296 457 b 360 503 353 490 360 494 b 314 546 360 522 333 546 b 0 146 151 546 0 292 b 83 1 0 93 15 1 b 278 185 157 1 242 128 b 381 -31 278 119 289 -31 b 631 168 478 -31 579 96 b 661 225 640 182 661 208 z "},"ã":{"ha":585,"x_min":0,"x_max":0,"o":"m 371 588 b 474 692 428 588 474 624 b 454 714 474 704 468 714 b 433 694 439 714 433 706 b 371 654 433 671 401 654 b 219 729 304 654 303 729 b 97 615 168 729 97 679 b 117 594 97 606 101 594 b 136 615 132 594 136 606 b 219 664 136 640 174 664 b 371 588 276 664 274 588 z m 661 225 b 639 251 661 240 656 251 b 600 217 619 251 600 217 b 393 29 563 167 458 29 b 349 165 350 29 349 136 b 369 319 349 214 354 272 b 394 400 376 340 394 381 b 363 422 394 418 376 422 b 315 381 336 422 325 401 b 110 78 289 324 172 78 b 92 111 93 78 92 100 b 210 383 92 215 138 310 b 346 486 250 425 296 457 b 360 503 353 490 360 494 b 314 546 360 522 333 546 b 0 146 151 546 0 292 b 83 1 0 93 15 1 b 278 185 157 1 242 128 b 381 -31 278 119 289 -31 b 631 168 478 -31 579 96 b 661 225 640 182 661 208 z "},"â":{"ha":585,"x_min":0,"x_max":0,"o":"m 272 767 b 257 760 267 767 261 765 l 92 586 b 79 560 86 579 79 571 b 97 540 79 547 88 540 b 117 549 104 540 111 543 l 272 676 l 418 547 b 438 539 422 542 431 539 b 451 557 446 539 451 544 b 439 586 451 568 446 578 l 289 760 b 272 767 285 765 278 767 z m 661 225 b 639 251 661 240 656 251 b 600 217 619 251 600 217 b 393 29 563 167 458 29 b 349 165 350 29 349 136 b 369 319 349 214 354 272 b 394 400 376 340 394 381 b 363 422 394 418 376 422 b 315 381 336 422 325 401 b 110 78 289 324 172 78 b 92 111 93 78 92 100 b 210 383 92 215 138 310 b 346 486 250 425 296 457 b 360 503 353 490 360 494 b 314 546 360 522 333 546 b 0 146 151 546 0 292 b 83 1 0 93 15 1 b 278 185 157 1 242 128 b 381 -31 278 119 289 -31 b 631 168 478 -31 579 96 b 661 225 640 182 661 208 z "},"á":{"ha":585,"x_min":0,"x_max":0,"o":"m 661 225 b 639 251 661 240 656 251 b 600 217 619 251 600 217 b 393 29 563 167 458 29 b 349 165 350 29 349 136 b 369 319 349 214 354 272 b 394 400 376 340 394 381 b 363 422 394 418 376 422 b 315 381 336 422 325 401 b 110 78 289 324 172 78 b 92 111 93 78 92 100 b 346 486 92 275 219 433 b 360 503 353 489 360 494 b 314 546 360 522 333 546 b 0 146 151 546 0 292 b 83 1 0 93 15 1 b 278 185 157 1 242 128 b 381 -31 278 119 289 -31 b 661 225 510 -31 661 200 z m 269 600 b 399 735 297 600 354 681 b 467 838 424 765 467 807 b 422 882 467 863 447 882 b 340 790 378 882 361 826 l 260 649 b 250 621 256 640 250 631 b 269 600 250 610 258 600 z "},"à":{"ha":585,"x_min":0,"x_max":0,"o":"m 661 225 b 639 251 661 240 656 251 b 600 217 619 251 600 217 b 393 29 563 167 458 29 b 349 165 350 29 349 136 b 369 319 349 214 354 272 b 394 400 376 340 394 381 b 363 422 394 418 376 422 b 315 381 336 422 325 401 b 110 78 289 324 172 78 b 92 111 93 78 92 100 b 346 486 92 275 219 433 b 360 503 353 489 360 494 b 314 546 360 522 333 546 b 0 146 151 546 0 292 b 83 1 0 93 15 1 b 278 185 157 1 242 128 b 381 -31 278 119 289 -31 b 661 225 510 -31 661 200 z m 289 600 b 308 621 300 600 308 610 b 299 649 308 631 303 640 l 218 790 b 136 882 197 826 181 882 b 92 838 111 882 92 863 b 160 735 92 807 135 765 b 289 600 204 681 261 600 z "},"Ý":{"ha":817,"x_min":0,"x_max":0,"o":"m 600 510 b 399 -231 589 307 522 -69 b 269 -299 368 -271 321 -299 b 110 -224 182 -299 138 -224 b 88 -244 97 -224 88 -232 b 125 -303 88 -262 111 -290 b 267 -358 163 -336 215 -358 b 757 676 608 -358 726 429 b 778 871 765 739 772 804 l 778 878 b 743 918 778 900 771 918 l 719 918 b 664 829 672 918 664 829 b 625 729 661 804 636 756 b 221 126 575 610 364 126 b 150 310 150 126 150 261 b 217 874 150 494 169 694 b 221 897 218 882 221 889 b 174 938 221 926 200 938 b 132 931 160 938 144 938 b 60 790 93 913 60 790 b 17 338 17 639 17 485 b 178 18 17 229 28 18 b 600 510 368 18 536 360 z m 422 989 b 454 1010 435 989 454 1010 b 551 1124 481 1039 519 1085 b 610 1197 571 1147 593 1172 b 619 1226 615 1206 619 1215 b 575 1271 619 1251 600 1271 b 533 1250 558 1271 543 1263 b 493 1179 518 1229 506 1201 l 413 1038 b 403 1010 408 1029 403 1019 b 422 989 403 999 411 989 z "},"Ü":{"ha":826,"x_min":0,"x_max":0,"o":"m 418 939 b 469 1010 463 939 469 972 b 410 1065 469 1040 439 1065 b 361 994 372 1065 361 1025 b 418 939 361 961 386 939 z m 613 939 b 664 1010 657 939 664 972 b 604 1065 664 1040 633 1065 b 556 994 567 1065 556 1025 b 613 939 556 961 581 939 z m 807 844 b 772 879 807 865 793 879 b 697 792 717 879 707 835 b 656 697 692 764 668 724 b 232 121 599 578 374 121 b 169 265 171 121 169 218 b 253 836 169 442 201 665 b 258 863 256 844 258 853 b 206 900 258 896 232 900 b 169 894 193 900 181 900 b 92 753 128 876 92 753 b 36 300 71 692 36 450 b 183 13 36 199 42 13 b 608 453 364 13 536 313 b 589 114 594 340 589 228 b 631 -75 589 71 590 -75 b 667 -22 661 -75 667 -46 b 665 51 667 -3 665 18 b 751 644 676 251 707 450 b 807 844 761 685 807 818 z "},"Û":{"ha":826,"x_min":0,"x_max":0,"o":"m 494 1183 b 479 1176 489 1183 483 1182 l 314 1003 b 301 976 308 996 301 988 b 319 957 301 964 310 957 b 339 965 326 957 333 960 l 494 1093 l 640 964 b 660 956 644 958 653 956 b 674 974 668 956 674 961 b 661 1003 674 985 668 994 l 511 1176 b 494 1183 507 1182 500 1183 z m 807 844 b 772 879 807 865 793 879 b 697 792 717 879 707 835 b 656 697 692 764 668 724 b 232 121 599 578 374 121 b 169 265 171 121 169 218 b 253 836 169 442 201 665 b 258 863 256 844 258 853 b 206 900 258 896 232 900 b 169 894 193 900 181 900 b 92 753 128 876 92 753 b 36 300 71 692 36 450 b 183 13 36 199 42 13 b 608 453 364 13 536 313 b 589 114 594 340 589 228 b 631 -75 589 71 590 -75 b 667 -22 661 -75 667 -46 b 665 51 667 -3 665 18 b 751 644 676 251 707 450 b 807 844 761 685 807 818 z "},"Ú":{"ha":826,"x_min":0,"x_max":0,"o":"m 450 919 b 482 940 463 919 482 940 b 579 1054 508 969 547 1015 b 638 1128 599 1078 621 1103 b 647 1157 643 1136 647 1146 b 603 1201 647 1182 628 1201 b 561 1181 586 1201 571 1193 b 521 1110 546 1160 533 1132 l 440 968 b 431 940 436 960 431 950 b 450 919 431 929 439 919 z m 807 844 b 772 879 807 865 793 879 b 697 792 717 879 707 835 b 656 697 692 764 668 724 b 232 121 599 578 374 121 b 169 265 171 121 169 218 b 253 836 169 442 201 665 b 258 863 256 844 258 853 b 206 900 258 896 232 900 b 169 894 193 900 181 900 b 92 753 128 876 92 753 b 36 300 71 692 36 450 b 183 13 36 199 42 13 b 608 453 364 13 536 313 b 589 114 594 340 589 228 b 631 -75 589 71 590 -75 b 667 -22 661 -75 667 -46 b 665 51 667 -3 665 18 b 751 644 676 251 707 450 b 807 844 761 685 807 818 z "},"Ù":{"ha":826,"x_min":0,"x_max":0,"o":"m 532 919 b 551 940 543 919 551 929 b 542 968 551 950 546 960 l 461 1110 b 421 1181 449 1132 436 1160 b 379 1201 411 1193 396 1201 b 335 1157 354 1201 335 1182 b 344 1128 335 1146 339 1136 b 403 1054 361 1103 383 1078 b 500 940 435 1015 474 969 b 532 919 500 940 519 919 z m 807 844 b 772 879 807 865 793 879 b 697 792 717 879 707 835 b 656 697 692 764 668 724 b 232 121 599 578 374 121 b 169 265 171 121 169 218 b 253 836 169 442 201 665 b 258 863 256 844 258 853 b 206 900 258 896 232 900 b 169 894 193 900 181 900 b 92 753 128 876 92 753 b 36 300 71 692 36 450 b 183 13 36 199 42 13 b 608 453 364 13 536 313 b 589 114 594 340 589 228 b 631 -75 589 71 590 -75 b 667 -22 661 -75 667 -46 b 665 51 667 -3 665 18 b 751 644 676 251 707 450 b 807 844 761 685 807 818 z "},"×":{"ha":628,"x_min":0,"x_max":0,"o":"m 508 -12 l 544 22 l 350 217 l 544 411 l 508 449 l 314 254 l 119 449 l 83 411 l 278 217 l 83 22 l 119 -14 l 314 181 z "},"Ö":{"ha":851,"x_min":0,"x_max":0,"o":"m 303 -56 b 782 601 610 -56 782 339 b 586 1006 782 714 736 1006 b 524 1001 565 1006 544 1001 b 435 1015 493 1001 465 1015 b 235 921 357 1015 289 975 b 25 336 93 778 25 533 b 303 -56 25 157 86 -56 z m 518 924 b 708 575 668 924 708 689 b 346 36 708 382 576 36 b 153 304 190 36 153 178 b 363 844 153 482 236 717 b 518 924 404 886 457 924 z m 418 1092 b 469 1163 463 1092 469 1125 b 410 1218 469 1193 439 1218 b 361 1147 372 1218 361 1178 b 418 1092 361 1114 386 1092 z m 613 1092 b 664 1163 657 1092 664 1125 b 604 1218 664 1193 633 1218 b 556 1147 567 1218 556 1178 b 613 1092 556 1114 581 1092 z "},"Õ":{"ha":851,"x_min":0,"x_max":0,"o":"m 303 -56 b 782 601 610 -56 782 339 b 586 1006 782 714 736 1006 b 524 1001 565 1006 544 1001 b 435 1015 493 1001 465 1015 b 235 921 357 1015 289 975 b 25 336 93 778 25 533 b 303 -56 25 157 86 -56 z m 518 924 b 708 575 668 924 708 689 b 346 36 708 382 576 36 b 153 304 190 36 153 178 b 363 844 153 482 236 717 b 518 924 404 886 457 924 z m 593 1060 b 696 1164 650 1060 696 1096 b 676 1186 696 1176 690 1186 b 656 1167 661 1186 656 1178 b 593 1126 656 1143 624 1126 b 442 1201 526 1126 525 1201 b 319 1088 390 1201 319 1151 b 339 1067 319 1078 324 1067 b 358 1088 354 1067 358 1078 b 442 1136 358 1113 396 1136 b 593 1060 499 1136 496 1060 z "},"Ô":{"ha":851,"x_min":0,"x_max":0,"o":"m 303 -56 b 782 601 610 -56 782 339 b 586 1006 782 714 736 1006 b 524 1001 565 1006 544 1001 b 435 1015 493 1001 465 1015 b 235 921 357 1015 289 975 b 25 336 93 778 25 533 b 303 -56 25 157 86 -56 z m 518 924 b 708 575 668 924 708 689 b 346 36 708 382 576 36 b 153 304 190 36 153 178 b 363 844 153 482 236 717 b 518 924 404 886 457 924 z m 508 1281 b 493 1274 503 1281 497 1279 l 328 1100 b 315 1074 322 1093 315 1085 b 333 1054 315 1061 324 1054 b 353 1063 340 1054 347 1057 l 508 1190 l 654 1061 b 674 1053 658 1056 667 1053 b 688 1071 682 1053 688 1058 b 675 1100 688 1082 682 1092 l 525 1274 b 508 1281 521 1279 514 1281 z "},"Ó":{"ha":851,"x_min":0,"x_max":0,"o":"m 303 -56 b 782 601 610 -56 782 339 b 586 1006 782 714 736 1006 b 524 1001 565 1006 544 1001 b 435 1015 493 1001 465 1015 b 235 921 357 1015 289 975 b 25 336 93 778 25 533 b 303 -56 25 157 86 -56 z m 518 924 b 708 575 668 924 708 689 b 346 36 708 382 576 36 b 153 304 190 36 153 178 b 363 844 153 482 236 717 b 518 924 404 886 457 924 z m 506 1072 b 538 1093 518 1072 538 1093 b 635 1207 564 1122 603 1168 b 693 1281 654 1231 676 1256 b 703 1310 699 1289 703 1299 b 658 1354 703 1335 683 1354 b 617 1333 642 1354 626 1346 b 576 1263 601 1313 589 1285 l 496 1121 b 486 1093 492 1113 486 1103 b 506 1072 486 1082 494 1072 z "},"Ò":{"ha":851,"x_min":0,"x_max":0,"o":"m 303 -56 b 782 601 610 -56 782 339 b 586 1006 782 714 736 1006 b 524 1001 565 1006 544 1001 b 435 1015 493 1001 465 1015 b 235 921 357 1015 289 975 b 25 336 93 778 25 533 b 303 -56 25 157 86 -56 z m 518 924 b 708 575 668 924 708 689 b 346 36 708 382 576 36 b 153 304 190 36 153 178 b 363 844 153 482 236 717 b 518 924 404 886 457 924 z m 531 1072 b 550 1093 542 1072 550 1082 b 540 1121 550 1103 544 1113 l 460 1263 b 419 1333 447 1285 435 1313 b 378 1354 410 1346 394 1354 b 333 1310 353 1354 333 1335 b 343 1281 333 1299 338 1289 b 401 1207 360 1256 382 1231 b 499 1093 433 1168 472 1122 b 531 1072 499 1093 518 1072 z "},"Ñ":{"ha":1044,"x_min":0,"x_max":0,"o":"m 774 935 b 876 1039 831 935 876 971 b 857 1061 876 1051 871 1061 b 836 1042 842 1061 836 1053 b 774 1001 836 1018 804 1001 b 622 1076 707 1001 706 1076 b 500 963 571 1076 500 1026 b 519 942 500 953 504 942 b 539 963 535 942 539 953 b 622 1011 539 988 576 1011 b 774 935 679 1011 676 935 z m 19 -136 b 379 551 321 -136 379 551 b 764 -28 379 551 542 -28 b 961 846 926 -28 961 713 b 935 893 961 864 960 893 b 894 849 904 893 894 878 b 885 590 894 765 890 681 b 815 144 885 590 860 279 b 772 82 810 128 794 82 b 494 675 667 82 521 576 b 467 799 483 715 474 757 l 463 832 b 418 889 458 857 450 889 b 317 814 385 889 317 853 b 328 747 317 792 328 771 b 324 640 328 710 328 679 b 17 -76 303 425 246 -76 l -46 -72 b -78 -100 -62 -72 -78 -82 b 19 -136 -78 -133 -4 -136 z "},"Ï":{"ha":633,"x_min":0,"x_max":0,"o":"m 585 817 b 446 1047 585 917 574 1047 b 122 772 321 1047 169 879 b 71 568 94 708 71 638 b 126 442 71 532 75 442 b 154 472 144 442 154 454 b 142 511 154 488 149 499 b 128 575 131 531 128 553 b 172 761 128 632 146 711 b 394 956 206 825 317 956 b 454 843 446 956 454 881 b 211 33 454 700 378 174 b 126 -1 185 11 157 -1 b 24 40 60 -1 53 40 b 0 21 14 40 0 32 b 126 -54 0 -31 88 -54 b 343 47 213 -54 283 -15 b 585 817 519 233 585 626 z m 335 1106 b 386 1176 379 1106 386 1139 b 326 1232 386 1207 356 1232 b 278 1161 289 1232 278 1192 b 335 1106 278 1128 303 1106 z m 529 1106 b 581 1176 574 1106 581 1139 b 521 1232 581 1207 550 1232 b 472 1161 483 1232 472 1192 b 529 1106 472 1128 497 1106 z "},"Î":{"ha":633,"x_min":0,"x_max":0,"o":"m 585 817 b 446 1047 585 917 574 1047 b 122 772 321 1047 169 879 b 71 568 94 708 71 638 b 126 442 71 532 75 442 b 154 472 144 442 154 454 b 142 511 154 488 149 499 b 128 575 131 531 128 553 b 172 761 128 632 146 711 b 394 956 206 825 317 956 b 454 843 446 956 454 881 b 211 33 454 700 378 174 b 126 -1 185 11 157 -1 b 24 40 60 -1 53 40 b 0 21 14 40 0 32 b 126 -54 0 -31 88 -54 b 343 47 213 -54 283 -15 b 585 817 519 233 585 626 z m 439 1281 b 424 1274 433 1281 428 1279 l 258 1100 b 246 1074 253 1093 246 1085 b 264 1054 246 1061 254 1054 b 283 1063 271 1054 278 1057 l 439 1190 l 585 1061 b 604 1053 589 1056 597 1053 b 618 1071 613 1053 618 1058 b 606 1100 618 1082 613 1092 l 456 1274 b 439 1281 451 1279 444 1281 z "},"Í":{"ha":633,"x_min":0,"x_max":0,"o":"m 585 817 b 446 1047 585 917 574 1047 b 122 772 321 1047 169 879 b 71 568 94 708 71 638 b 126 442 71 532 75 442 b 154 472 144 442 154 454 b 142 511 154 488 149 499 b 128 575 131 531 128 553 b 172 761 128 632 146 711 b 394 956 206 825 317 956 b 454 843 446 956 454 881 b 211 33 454 700 378 174 b 126 -1 185 11 157 -1 b 24 40 60 -1 53 40 b 0 21 14 40 0 32 b 126 -54 0 -31 88 -54 b 343 47 213 -54 283 -15 b 585 817 519 233 585 626 z m 436 1100 b 468 1121 449 1100 468 1121 b 565 1235 494 1150 533 1196 b 624 1308 585 1258 607 1283 b 633 1338 629 1317 633 1326 b 589 1382 633 1363 614 1382 b 547 1361 572 1382 557 1374 b 507 1290 532 1340 519 1313 l 426 1149 b 417 1121 422 1140 417 1131 b 436 1100 417 1110 425 1100 z "},"Ì":{"ha":633,"x_min":0,"x_max":0,"o":"m 585 817 b 446 1047 585 917 574 1047 b 122 772 321 1047 169 879 b 71 568 94 708 71 638 b 126 442 71 532 75 442 b 154 472 144 442 154 454 b 142 511 154 488 149 499 b 128 575 131 531 128 553 b 172 761 128 632 146 711 b 394 956 206 825 317 956 b 454 843 446 956 454 881 b 211 33 454 700 378 174 b 126 -1 185 11 157 -1 b 24 40 60 -1 53 40 b 0 21 14 40 0 32 b 126 -54 0 -31 88 -54 b 343 47 213 -54 283 -15 b 585 817 519 233 585 626 z m 458 1100 b 478 1121 469 1100 478 1110 b 468 1149 478 1131 472 1140 l 388 1290 b 347 1361 375 1313 363 1340 b 306 1382 338 1374 322 1382 b 261 1338 281 1382 261 1363 b 271 1308 261 1326 265 1317 b 329 1235 288 1283 310 1258 b 426 1121 361 1196 400 1150 b 458 1100 426 1121 446 1100 z "},"Ë":{"ha":715,"x_min":0,"x_max":0,"o":"m 446 1092 b 497 1163 490 1092 497 1125 b 438 1218 497 1193 467 1218 b 389 1147 400 1218 389 1178 b 446 1092 389 1114 414 1092 z m 640 1092 b 692 1163 685 1092 692 1125 b 632 1218 692 1193 661 1218 b 583 1147 594 1218 583 1178 b 640 1092 583 1114 608 1092 z m 554 1036 b 97 475 306 1036 143 681 b -12 408 60 467 -12 460 b 74 361 -12 363 38 361 l 86 361 b 85 324 86 351 85 342 b 363 -65 85 147 151 -65 b 763 168 521 -65 675 42 b 792 229 774 183 792 211 b 768 254 792 243 782 254 b 743 239 756 254 750 247 b 696 169 726 217 714 192 b 432 21 633 89 538 21 b 225 346 265 21 225 214 b 229 394 225 363 226 378 b 244 399 233 396 239 397 b 593 474 321 418 553 474 l 596 474 b 642 525 619 479 642 499 b 585 532 642 532 593 532 b 244 506 514 532 304 524 b 550 965 276 635 386 965 b 679 840 661 965 639 840 b 707 888 707 840 707 867 b 554 1036 707 982 647 1036 z "},"Ê":{"ha":715,"x_min":0,"x_max":0,"o":"m 550 1281 b 535 1274 544 1281 539 1279 l 369 1100 b 357 1074 364 1093 357 1085 b 375 1054 357 1061 365 1054 b 394 1063 382 1054 389 1057 l 550 1190 l 696 1061 b 715 1053 700 1056 708 1053 b 729 1071 724 1053 729 1058 b 717 1100 729 1082 724 1092 l 567 1274 b 550 1281 563 1279 556 1281 z m 554 1036 b 97 475 306 1036 143 681 b -12 408 60 467 -12 460 b 74 361 -12 363 38 361 l 86 361 b 85 324 86 351 85 342 b 363 -65 85 147 151 -65 b 763 168 521 -65 675 42 b 792 229 774 183 792 211 b 768 254 792 243 782 254 b 743 239 756 254 750 247 b 696 169 726 217 714 192 b 432 21 633 89 538 21 b 225 346 265 21 225 214 b 229 394 225 363 226 378 b 244 399 233 396 239 397 b 593 474 321 418 553 474 l 596 474 b 642 525 619 479 642 499 b 585 532 642 532 593 532 b 244 506 514 532 304 524 b 550 965 276 635 386 965 b 679 840 661 965 639 840 b 707 888 707 840 707 867 b 554 1036 707 982 647 1036 z "},"É":{"ha":715,"x_min":0,"x_max":0,"o":"m 554 1036 b 97 475 304 1036 143 679 b -12 408 58 465 -12 460 b 74 361 -12 363 38 361 l 86 361 b 85 324 86 361 85 340 b 363 -65 85 146 153 -65 b 763 168 521 -65 674 42 b 792 229 772 182 792 211 b 768 254 792 243 782 254 b 743 239 756 254 750 249 b 696 169 726 215 714 192 b 432 21 632 89 539 21 b 225 346 267 21 225 210 b 229 394 225 363 225 379 b 594 474 257 401 563 474 l 596 474 b 642 525 619 479 642 499 b 585 532 642 532 592 532 b 244 506 526 532 293 521 b 550 965 275 631 386 965 b 679 840 661 965 639 840 b 707 888 707 840 707 865 b 554 1036 707 982 647 1036 z m 533 1100 b 563 1118 544 1100 554 1110 b 663 1235 600 1157 631 1196 b 721 1308 682 1258 704 1283 b 731 1338 726 1317 731 1326 b 686 1382 731 1363 711 1382 b 644 1361 669 1382 654 1374 b 604 1290 629 1340 617 1313 l 524 1149 b 514 1121 519 1140 514 1131 b 533 1100 514 1110 522 1100 z "},"È":{"ha":715,"x_min":0,"x_max":0,"o":"m 554 1036 b 97 475 306 1036 143 681 b -12 408 60 467 -12 460 b 74 361 -12 363 38 361 l 86 361 b 85 324 86 351 85 342 b 363 -65 85 147 151 -65 b 763 168 521 -65 675 42 b 792 229 774 183 792 211 b 768 254 792 243 782 254 b 743 239 756 254 750 247 b 696 169 726 217 714 192 b 432 21 633 89 538 21 b 225 346 265 21 225 214 b 229 394 225 363 226 378 b 244 399 233 396 239 397 b 593 474 321 418 553 474 l 596 474 b 642 525 619 479 642 499 b 585 532 642 532 593 532 b 244 506 514 532 304 524 b 550 965 276 635 386 965 b 679 840 661 965 639 840 b 707 888 707 840 707 867 b 554 1036 707 982 647 1036 z m 572 1100 b 592 1121 583 1100 592 1110 b 582 1149 592 1131 586 1140 l 501 1290 b 461 1361 489 1313 476 1340 b 419 1382 451 1374 436 1382 b 375 1338 394 1382 375 1363 b 385 1308 375 1326 379 1317 b 443 1235 401 1283 424 1258 b 540 1121 475 1196 514 1150 b 572 1100 540 1121 560 1100 z "},"Ç":{"ha":840,"x_min":0,"x_max":0,"o":"m 576 -136 b 561 -39 576 -97 571 -64 b 914 213 706 -11 843 88 b 932 257 919 224 932 244 b 910 281 932 269 922 281 b 872 249 893 281 881 261 b 829 183 858 226 846 204 b 521 33 753 89 643 33 b 257 404 306 33 257 217 b 571 953 257 561 367 953 b 676 833 639 953 676 897 b 658 714 676 794 668 751 b 628 622 651 690 628 643 b 663 597 628 601 644 597 b 696 607 675 597 686 600 b 750 835 736 635 750 788 b 560 1031 750 947 671 1031 b 101 404 263 1031 101 658 b 483 -46 101 175 232 -46 b 504 -131 496 -74 504 -100 b 436 -189 504 -160 468 -189 l 407 -186 b 379 -215 390 -186 379 -200 b 440 -256 379 -242 419 -256 b 576 -136 497 -256 576 -226 z "},"Å":{"ha":996,"x_min":0,"x_max":0,"o":"m 600 1094 b 724 1250 674 1094 724 1185 b 653 1350 724 1294 707 1350 b 528 1190 576 1350 528 1257 b 600 1094 528 1146 547 1094 z m 654 1301 b 682 1254 674 1301 682 1269 b 601 1135 682 1217 647 1135 b 582 1178 582 1135 582 1164 b 654 1301 582 1214 608 1301 z m 546 424 b 385 403 492 417 439 411 b 468 606 415 469 442 538 b 515 718 475 622 507 718 b 521 710 518 718 521 711 b 529 606 531 678 528 639 b 546 424 533 544 539 483 z m 799 -22 b 1063 199 901 -22 1017 115 b 1074 233 1068 210 1074 221 b 1050 253 1074 244 1060 253 b 1018 229 1035 253 1022 242 b 806 63 1018 229 897 63 b 676 388 722 63 682 324 b 796 407 713 393 763 394 b 831 443 813 413 831 422 b 804 463 831 458 817 463 b 671 446 760 463 715 451 b 661 688 663 526 661 607 b 674 1004 661 913 674 990 b 642 1047 674 1024 663 1047 b 517 975 608 1047 517 1017 b 485 822 517 919 506 874 b -49 -81 410 643 165 -81 l -122 -68 b -153 -92 -136 -68 -153 -75 b -54 -133 -153 -128 -79 -133 b 357 339 169 -133 278 172 b 556 369 424 346 489 360 b 799 -22 575 239 626 -22 z "},"Ä":{"ha":996,"x_min":0,"x_max":0,"o":"m 501 1106 b 553 1176 546 1106 553 1139 b 493 1232 553 1207 522 1232 b 444 1161 456 1232 444 1192 b 501 1106 444 1128 469 1106 z m 696 1106 b 747 1176 740 1106 747 1139 b 688 1232 747 1207 717 1232 b 639 1161 650 1232 639 1192 b 696 1106 639 1128 664 1106 z m 546 424 b 385 403 492 417 439 411 b 468 606 415 469 442 538 b 515 718 475 622 507 718 b 521 710 518 718 521 711 b 529 606 531 678 528 639 b 546 424 533 544 539 483 z m 799 -22 b 1063 199 901 -22 1017 115 b 1074 233 1068 210 1074 221 b 1050 253 1074 244 1060 253 b 1018 229 1035 253 1022 242 b 806 63 1018 229 897 63 b 676 388 722 63 682 324 b 796 407 713 393 763 394 b 831 443 813 413 831 422 b 804 463 831 458 817 463 b 671 446 760 463 715 451 b 661 688 663 526 661 607 b 674 1004 661 913 674 990 b 642 1047 674 1024 663 1047 b 517 975 608 1047 517 1017 b 485 822 517 919 506 874 b -49 -81 410 643 165 -81 l -122 -68 b -153 -92 -136 -68 -153 -75 b -54 -133 -153 -128 -79 -133 b 357 339 169 -133 278 172 b 556 369 424 346 489 360 b 799 -22 575 239 626 -22 z "},"Ã":{"ha":996,"x_min":0,"x_max":0,"o":"m 690 1088 b 793 1192 747 1088 793 1124 b 774 1214 793 1204 788 1214 b 753 1194 758 1214 753 1206 b 690 1154 753 1171 721 1154 b 539 1229 624 1154 622 1229 b 417 1115 488 1229 417 1179 b 436 1094 417 1106 421 1094 b 456 1115 451 1094 456 1106 b 539 1164 456 1140 493 1164 b 690 1088 596 1164 593 1088 z m 546 424 b 385 403 492 417 439 411 b 468 606 415 469 442 538 b 515 718 475 622 507 718 b 521 710 518 718 521 711 b 529 606 531 678 528 639 b 546 424 533 544 539 483 z m 799 -22 b 1063 199 901 -22 1017 115 b 1074 233 1068 210 1074 221 b 1050 253 1074 244 1060 253 b 1018 229 1035 253 1022 242 b 806 63 1018 229 897 63 b 676 388 722 63 682 324 b 796 407 713 393 763 394 b 831 443 813 413 831 422 b 804 463 831 458 817 463 b 671 446 760 463 715 451 b 661 688 663 526 661 607 b 674 1004 661 913 674 990 b 642 1047 674 1024 663 1047 b 517 975 608 1047 517 1017 b 485 822 517 919 506 874 b -49 -81 410 643 165 -81 l -122 -68 b -153 -92 -136 -68 -153 -75 b -54 -133 -153 -128 -79 -133 b 357 339 169 -133 278 172 b 556 369 424 346 489 360 b 799 -22 575 239 626 -22 z "},"Â":{"ha":996,"x_min":0,"x_max":0,"o":"m 596 1281 b 581 1274 590 1281 585 1278 l 415 1100 b 403 1074 410 1093 403 1085 b 421 1054 403 1061 413 1054 b 440 1063 428 1054 435 1058 l 596 1190 l 742 1061 b 761 1053 747 1057 754 1053 b 775 1071 769 1053 775 1060 b 763 1100 775 1082 768 1093 l 613 1274 b 596 1281 608 1278 601 1281 z m 546 424 b 385 403 492 417 439 411 b 468 606 415 469 442 538 b 515 718 475 622 507 718 b 521 710 518 718 521 711 b 529 606 531 678 528 639 b 546 424 533 544 539 483 z m 799 -22 b 1063 199 901 -22 1017 115 b 1074 233 1068 210 1074 221 b 1050 253 1074 244 1060 253 b 1018 229 1035 253 1022 242 b 806 63 1018 229 897 63 b 676 388 722 63 682 324 b 796 407 713 393 763 394 b 831 443 813 413 831 422 b 804 463 831 458 817 463 b 671 446 760 463 715 451 b 661 688 663 526 661 607 b 674 1004 661 913 674 990 b 642 1047 674 1024 663 1047 b 517 975 608 1047 517 1017 b 485 822 517 919 506 874 b -49 -81 410 643 165 -81 l -122 -68 b -153 -92 -136 -68 -153 -75 b -54 -133 -153 -128 -79 -133 b 357 339 169 -133 278 172 b 556 369 424 346 489 360 b 799 -22 575 239 626 -22 z "},"Á":{"ha":996,"x_min":0,"x_max":0,"o":"m 546 424 b 385 403 492 417 439 411 b 468 606 415 469 442 538 b 515 718 475 622 507 718 b 521 710 518 718 521 711 b 529 606 531 678 528 639 b 546 424 533 544 539 483 z m 799 -22 b 1063 199 901 -22 1017 115 b 1074 233 1068 210 1074 221 b 1050 253 1074 244 1060 253 b 1018 229 1035 253 1022 242 b 806 63 1018 229 897 63 b 676 388 722 63 682 324 b 796 407 713 393 763 394 b 831 443 813 413 831 422 b 804 463 831 458 817 463 b 671 446 760 463 715 451 b 661 688 663 526 661 607 b 674 1004 661 913 674 990 b 642 1047 674 1024 663 1047 b 517 975 608 1047 517 1017 b 485 822 517 919 506 874 b -49 -81 410 643 165 -81 l -122 -68 b -153 -92 -136 -68 -153 -75 b -54 -133 -153 -128 -79 -133 b 357 339 169 -133 278 172 b 556 369 424 346 489 360 b 799 -22 575 239 626 -22 z m 589 1100 b 621 1121 601 1100 621 1121 b 718 1235 647 1150 686 1196 b 776 1308 738 1258 760 1283 b 786 1338 782 1317 786 1326 b 742 1382 786 1363 767 1382 b 700 1361 725 1382 710 1374 b 660 1290 685 1340 672 1313 l 579 1149 b 569 1121 575 1140 569 1131 b 589 1100 569 1110 578 1100 z "},"À":{"ha":996,"x_min":0,"x_max":0,"o":"m 546 424 b 385 403 492 417 439 411 b 468 606 415 469 442 538 b 515 718 475 622 507 718 b 521 710 518 718 521 711 b 529 606 531 678 528 639 b 546 424 533 544 539 483 z m 799 -22 b 1063 199 901 -22 1017 115 b 1074 233 1068 210 1074 221 b 1050 253 1074 244 1060 253 b 1018 229 1035 253 1022 242 b 806 63 1018 229 897 63 b 676 388 722 63 682 324 b 796 407 713 393 763 394 b 831 443 813 413 831 422 b 804 463 831 458 817 463 b 671 446 760 463 715 451 b 661 688 663 526 661 607 b 674 1004 661 913 674 990 b 642 1047 674 1024 663 1047 b 517 975 608 1047 517 1017 b 485 822 517 919 506 874 b -49 -81 410 643 165 -81 l -122 -68 b -153 -92 -136 -68 -153 -75 b -54 -133 -153 -128 -79 -133 b 357 339 169 -133 278 172 b 556 369 424 346 489 360 b 799 -22 575 239 626 -22 z m 614 1100 b 633 1121 625 1100 633 1110 b 624 1149 633 1131 628 1140 l 543 1290 b 503 1361 531 1313 518 1340 b 461 1382 493 1374 478 1382 b 417 1338 436 1382 417 1363 b 426 1308 417 1326 421 1317 b 485 1235 443 1283 465 1258 b 582 1121 517 1196 556 1150 b 614 1100 582 1121 601 1100 z "},"±":{"ha":660,"x_min":0,"x_max":0,"o":"m 354 261 l 576 261 l 576 308 l 354 308 l 354 450 l 307 450 l 307 308 l 83 308 l 83 261 l 307 261 l 307 121 l 354 121 z m 83 -4 l 576 -4 l 576 43 l 83 43 z "},"®":{"ha":811,"x_min":0,"x_max":0,"o":"m 83 311 b 406 -11 83 133 228 -11 b 728 311 583 -11 728 133 b 406 633 728 489 583 633 b 83 311 228 633 83 489 z m 143 311 b 407 575 143 457 261 575 b 671 311 553 575 671 457 b 407 47 671 165 553 47 b 143 311 261 47 143 165 z m 281 121 l 349 121 l 349 286 l 393 286 l 497 121 l 572 121 b 468 286 539 174 500 235 b 558 394 519 293 558 336 b 426 503 558 467 515 503 l 281 503 z m 349 447 l 417 447 b 489 397 454 447 489 435 b 417 342 489 351 463 342 l 349 342 z "},"¬":{"ha":660,"x_min":0,"x_max":0,"o":"m 531 229 l 531 93 l 576 93 l 576 275 l 83 275 l 83 229 z "},"©":{"ha":811,"x_min":0,"x_max":0,"o":"m 83 311 b 406 -11 83 133 228 -11 b 728 311 583 -11 728 133 b 406 633 728 489 583 633 b 83 311 228 633 83 489 z m 143 311 b 407 575 143 457 261 575 b 671 311 553 575 671 457 b 407 47 671 165 553 47 b 143 311 261 47 143 165 z m 515 254 b 417 165 507 201 471 165 b 293 313 340 165 293 235 b 415 460 293 397 335 460 b 515 374 468 460 504 425 l 578 374 b 415 515 564 465 496 515 b 224 311 296 515 224 428 b 417 108 224 197 300 108 b 581 254 496 108 561 165 z "},"¦":{"ha":213,"x_min":0,"x_max":0,"o":"m 129 6 l 129 499 l 83 499 l 83 6 z m 129 618 l 129 1111 l 83 1111 l 83 618 z "},"−":{"ha":660,"x_min":0,"x_max":0,"o":"m 83 229 l 576 229 l 576 275 l 83 275 z "}," ":{"ha":347,"x_min":0,"x_max":0,"o":""},"@":{"ha":796,"x_min":0,"x_max":0,"o":"m 283 258 b 419 438 283 363 363 438 b 490 358 450 438 490 421 b 346 172 490 285 432 172 b 283 258 307 172 283 203 z m 590 475 l 535 475 l 517 424 b 419 493 496 469 460 493 b 214 251 296 493 214 367 b 335 119 214 179 264 119 b 443 174 394 119 422 149 l 444 174 b 515 119 451 138 475 119 b 713 360 590 119 713 210 b 401 636 713 536 556 636 b 83 308 190 636 83 469 b 401 -10 83 149 190 -10 b 686 142 526 -10 633 47 l 635 142 b 401 43 585 82 501 43 b 140 310 253 43 140 156 b 401 583 140 463 253 583 b 657 360 533 583 657 497 b 525 172 657 260 592 172 b 507 192 513 172 507 182 b 515 238 507 204 511 221 z "}}}
